<?xml version="1.0" encoding="UTF-8" standalone="no"?>
<!-- Uploaded to: SVG Repo, www.svgrepo.com, Generator: SVG Repo Mixer Tools -->

<svg
   fill="#000000"
   width="800px"
   height="800px"
   viewBox="0 0 14 14"
   role="img"
   focusable="false"
   aria-hidden="true"
   version="1.1"
   id="svg4"
   sodipodi:docname="one-finger-move.svg"
   inkscape:version="1.1.2 (0a00cf5339, 2022-02-04)"
   xmlns:inkscape="http://www.inkscape.org/namespaces/inkscape"
   xmlns:sodipodi="http://sodipodi.sourceforge.net/DTD/sodipodi-0.dtd"
   xmlns="http://www.w3.org/2000/svg"
   xmlns:svg="http://www.w3.org/2000/svg">
  <defs
     id="defs8" />
  <sodipodi:namedview
     id="namedview6"
     pagecolor="#ffffff"
     bordercolor="#666666"
     borderopacity="1.0"
     inkscape:pageshadow="2"
     inkscape:pageopacity="0.0"
     inkscape:pagecheckerboard="0"
     showgrid="false"
     inkscape:zoom="0.95125"
     inkscape:cx="404.20499"
     inkscape:cy="315.90013"
     inkscape:window-width="1920"
     inkscape:window-height="1126"
     inkscape:window-x="0"
     inkscape:window-y="1122"
     inkscape:window-maximized="1"
     inkscape:current-layer="svg4" />
  <path
     style="fill:#fffff0;fill-opacity:1;fill-rule:evenodd;stroke:#000000;stroke-width:0.024529;paint-order:fill markers stroke"
     d="m 8.5814512,12.990964 c 0.092453,-0.02539 3.5830478,-1.794715 3.6706418,-1.860583 0.03061,-0.02302 0.07984,-0.08629 0.109402,-0.140594 0.04392,-0.08069 0.05392,-0.121563 0.05472,-0.223615 l 9.8e-4,-0.124878 -0.300896,-0.590051 -0.300896,-0.5900521 0.03226,-0.4873941 C 11.898958,8.1988624 11.872197,8.0717285 11.503823,7.3403416 10.757301,5.8581614 10.676504,5.7077193 10.573764,5.6086037 10.460815,5.4996385 10.271982,5.3944695 10.116626,5.3540046 9.9806086,5.3185764 9.7676082,5.3179242 9.6327275,5.3525241 9.5756168,5.3671737 9.3467607,5.4081221 9.1241588,5.4435204 8.901557,5.4789189 8.6449209,5.5254521 8.5538565,5.5469276 8.4627923,5.5684034 8.1996299,5.6185554 7.9690519,5.6583767 7.3242883,5.7697285 7.2274593,5.7963166 7.0275062,5.916914 6.9597273,5.9577933 6.9020174,5.9884806 6.8992622,5.9851081 6.8965066,5.9817355 6.5593551,5.4738605 6.1500368,4.8564967 5.3009632,3.575863 5.3138105,3.5909195 5.027645,3.541086 4.8805059,3.5154628 4.719276,3.5404455 4.5710739,3.6118322 4.4351745,3.6772927 4.269183,3.844086 4.2089049,3.9757506 4.151759,4.1005736 4.1329316,4.2900625 4.164869,4.418953 4.1768993,4.4675046 4.6795366,5.4785726 5.2818404,6.6657708 5.8841446,7.8529691 6.3730846,8.8281671 6.3683739,8.8328776 6.3396615,8.8615902 6.0993935,8.8784416 5.9774084,8.8602985 5.7952792,8.8332102 5.6998862,8.7985839 5.4631864,8.6736435 5.2184398,8.5444557 5.1023903,8.5085427 4.9296779,8.5085427 c -0.5800415,0 -0.9318792,0.5719693 -0.6728093,1.0937609 0.1944433,0.3916272 1.0019206,1.0390214 1.8530589,1.4856874 0.439985,0.230899 0.670321,0.333206 1.3111383,0.582359 l 0.081401,0.03165 0.2805499,0.548796 c 0.1621086,0.317109 0.3063767,0.575991 0.3417263,0.613211 0.1113475,0.117242 0.3005758,0.169844 0.4567087,0.126959 z"
     id="path1283" />
  <path
     id="path2-3"
     style="fill:#6d2324;fill-opacity:1;stroke-width:1.09296"
     d="m 2.0573568,3.9178574 0.301429,0.02106 0.301325,0.0211 0.162861,-0.4550863 C 2.9126068,3.2546445 3.0420158,2.963686 3.1107298,2.8583905 3.4441458,2.3471249 4.1703758,1.9405343 4.7501359,1.9405343 H 5.0072576 V 1.5964027 c 0,-0.1892408 0.030769,-0.3440521 0.067689,-0.3440521 0.037331,0 0.398739,0.2494342 0.8032278,0.5543371 l -7.359e-4,-6.766e-4 c 0.404489,0.3049028 0.7143369,0.5751263 0.689723,0.6005182 -0.05733,0.057855 -1.5728278,0.6816154 -1.6538487,0.680858 C 4.8804938,3.0870388 4.8722758,2.931951 4.8948388,2.7426985 l 0.042065,-0.3440916 -0.284814,0.00231 c -0.392285,0.00231 -0.772273,0.2177387 -1.100766,0.6240468 -0.278035,0.3439462 -0.475747,0.8326417 -0.396777,0.9785297 0.02328,0.042863 0.161834,0.077952 0.307774,0.077952 0.145941,0 0.265289,0.023172 0.265289,0.051476 0,0.087824 -0.973367,1.7745219 -1.026697,1.7791809 -0.02769,0.0025 -0.05023,-0.03855 -0.05023,-0.09108 -1.01e-4,-0.05259 -0.133664,-0.502267 -0.296731,-0.999358 z m 7.2146077,1.0444979 c -7.18e-5,-2.05e-4 3.59e-5,-0.0011 3.859e-4,-0.0031 0.00357,-0.01968 0.00721,-0.03933 0.010832,-0.059 -2.01e-4,0.0045 -4.362e-4,0.009 -6.318e-4,0.01353 -5.922e-4,0.01368 -0.010081,0.04998 -0.010586,0.04857 z" />
</svg>
