<?xml version="1.0" encoding="UTF-8" standalone="no"?>
<!-- Uploaded to: SVG Repo, www.svgrepo.com, Generator: SVG Repo Mixer Tools -->

<svg
   fill="#000000"
   width="800px"
   height="800px"
   viewBox="0 0 14 14"
   role="img"
   focusable="false"
   aria-hidden="true"
   version="1.1"
   id="svg4"
   sodipodi:docname="one_finger_double_touch.svg"
   inkscape:version="1.1.2 (0a00cf5339, 2022-02-04)"
   xmlns:inkscape="http://www.inkscape.org/namespaces/inkscape"
   xmlns:sodipodi="http://sodipodi.sourceforge.net/DTD/sodipodi-0.dtd"
   xmlns="http://www.w3.org/2000/svg"
   xmlns:svg="http://www.w3.org/2000/svg">
  <defs
     id="defs8" />
  <sodipodi:namedview
     id="namedview6"
     pagecolor="#ffffff"
     bordercolor="#666666"
     borderopacity="1.0"
     inkscape:pageshadow="2"
     inkscape:pageopacity="0.0"
     inkscape:pagecheckerboard="0"
     showgrid="false"
     inkscape:zoom="0.95125"
     inkscape:cx="402.1025"
     inkscape:cy="400"
     inkscape:window-width="1920"
     inkscape:window-height="1048"
     inkscape:window-x="0"
     inkscape:window-y="0"
     inkscape:window-maximized="1"
     inkscape:current-layer="svg4" />
  <path
     d="m 6.828077,12.956595 c -0.024,-0.024 -0.0442,-0.1342 -0.045,-0.245 -8.7e-4,-0.1109 -0.0558,-0.3213 -0.12234,-0.4677 -0.11774,-0.2593 -0.23929,-0.3956 -1.01355,-1.137 -0.31934,-0.3057 -0.45892,-0.5276 -0.96449,-1.5331003 -0.66651,-1.3256 -0.86062,-1.6451 -1.38537,-2.2809 -0.50514,-0.612 -0.48358,-0.8601 0.0897,-1.0319 0.21664,-0.065 0.30464,-0.058 0.56821,0.042 0.36871,0.1409 0.88947,0.64 1.15739,1.1093 0.10258,0.1798 0.24648,0.393 0.31977,0.4738 0.15427,0.1703 0.40525,0.194 0.46291,0.044 0.0218,-0.057 0.0397,-1.2887 0.0397,-2.7375 0,-3.0305 -0.0245,-2.9018 0.56401,-2.9583 0.28104,-0.027 0.3539,-0.01 0.51866,0.1336 l 0.19169,0.165 0,1.3138 c 0,0.8913 0.021,1.2853 0.0653,1.2252 0.1798,-0.2437 0.56663,-0.3058 0.88356,-0.1419 0.24465,0.1265 0.32494,0.2815 0.32752,0.6322 0.002,0.2453 0.0131,0.2675 0.087,0.1702 0.34959,-0.4601 1.21794,-0.1378 1.21794,0.4521 l 0,0.2247 0.17219,-0.1354 c 0.20285,-0.1596 0.34062,-0.1687 0.64246,-0.043 0.39653,0.1656 0.41372,0.2586 0.43697,2.3647 l 0.021,1.8972003 -0.31394,0.6043 c -0.34743,0.6688 -0.47253,1.03 -0.53788,1.553 l -0.0437,0.3498 -1.64805,0 c -0.90642,0 -1.66765,-0.02 -1.69161,-0.044 z M 5.352857,4.2090947 c -0.40669,-0.3673 -0.59297,-0.798 -0.59297,-1.3711 0,-1.90329998 2.48567,-2.54399998 3.423,-0.8822 0.1804,0.3198 0.2026,0.417 0.20148,0.8822 -10e-4,0.4396 -0.0293,0.5764 -0.17747,0.8593 -0.15717,0.3002 -0.58491,0.7418 -0.71841,0.7418 -0.12881,0 -0.0302,-0.3215 0.15158,-0.4942 0.47843,-0.4545 0.62257,-1.2102 0.33661,-1.7648 -0.17477,-0.339 -0.58257,-0.7083 -0.89647,-0.812 -0.64868,-0.214 -1.45861,0.082 -1.81904,0.665 -0.37581,0.6079 -0.29624,1.3221 0.21172,1.9007 0.1344,0.1531 0.20267,0.2929 0.18914,0.3875 -0.0202,0.1407 -0.0351,0.1353 -0.30917,-0.1122 z m 0.13499,-0.8742 c -0.60215,-1.3882 1.38278,-2.39849998 2.12783,-1.083 0.1774,0.3132 0.19599,0.7944 0.0431,1.1166 -0.18714,0.3943 -0.2447,0.3458 -0.20146,-0.17 0.047,-0.5607 -0.0312,-0.8043 -0.3422,-1.066 -0.37415,-0.3148 -1.08308,-0.1925 -1.32307,0.2283 -0.0472,0.083 -0.10057,0.4152 -0.11854,0.7387 l -0.0327,0.5882 z"
     id="path2"
     style="fill:#6d2324;fill-opacity:1" />
  <path
     style="fill:#fffff0;fill-rule:evenodd;stroke:#000000;stroke-width:1.40166;paint-order:fill markers stroke;fill-opacity:1"
     d="m 467.22075,743.11636 c -0.54566,-0.13859 -17.31273,-0.49194 -37.26017,-0.7852 -19.94744,-0.29326 -37.2817,-0.84363 -38.5206,-1.22306 -2.49309,-0.76354 -3.38387,-3.63109 -4.23847,-13.64424 -2.02885,-23.77164 -11.38277,-40.27003 -37.27285,-65.74164 -3.21068,-3.15878 -13.41157,-13.20248 -22.66864,-22.31933 -15.34589,-15.11342 -25.05814,-26.72019 -30.55228,-36.51196 -1.13547,-2.02365 -3.50624,-6.10995 -5.26838,-9.08066 -1.76214,-2.97071 -9.70026,-18.10869 -17.64027,-33.63995 -32.95644,-64.46522 -37.59445,-73.27999 -44.17401,-83.95481 -1.42549,-2.31275 -3.07699,-5.15112 -3.67,-6.30749 -2.47354,-4.82338 -9.8071,-16.1169 -15.11039,-23.26965 -1.77273,-2.39095 -3.93273,-5.40268 -4.80001,-6.69274 -2.08145,-3.09613 -9.59281,-12.75647 -11.32843,-14.56948 -1.78951,-1.8693 -13.61139,-17.16939 -17.3226,-22.41923 -3.79525,-5.36873 -7.58565,-12.92415 -9.21153,-18.36143 -3.83173,-12.81406 5.88397,-22.12985 29.45257,-28.24026 12.55444,-3.25488 27.67105,0.91159 44.42147,12.24351 8.69615,5.88309 10.53042,7.47719 23.41167,20.34638 11.12232,11.11192 20.8806,23.51927 27.29752,34.70797 13.41392,23.38881 23.95623,34.03724 34.09846,34.44168 6.08761,0.24276 9.11705,-2.30938 9.91481,-8.35273 0.36766,-2.78519 0.90761,-40.07056 1.19988,-82.85636 0.29227,-42.78581 0.75752,-104.7569 1.03389,-137.71354 0.80357,-95.82132 1.59578,-98.68814 28.06704,-101.5679 16.28782,-1.77193 22.97915,-0.93461 29.59224,3.70302 2.98696,2.0947 7.64801,5.82474 10.3579,8.28898 l 4.92708,4.48044 0.23762,53.58584 c 0.24328,54.86225 1.12749,87.59557 2.42276,89.69138 0.47687,0.7716 2.5564,-0.26318 6.00138,-2.98627 5.69195,-4.49923 16.38317,-8.41494 22.97565,-8.41494 11.78422,0 25.67043,5.50385 33.05413,13.10111 5.94987,6.12196 7.97341,12.74437 8.75723,28.6596 0.32107,6.51913 0.86826,11.85254 1.21597,11.85202 0.34772,-5.1e-4 2.51152,-1.93815 4.80842,-4.30587 2.29692,-2.36771 6.55447,-5.55131 9.46124,-7.07467 4.72295,-2.47515 6.45897,-2.77189 16.32314,-2.79005 10.79054,-0.0199 11.22213,0.0729 19.2428,4.13713 15.18903,7.69656 22.4803,18.65113 23.56579,35.40577 l 0.59415,9.17071 2.74016,-1.75674 c 1.50708,-0.96622 3.68627,-2.64503 4.84265,-3.73071 3.37966,-3.17301 14.41219,-8.02793 18.24511,-8.02883 8.49899,-0.002 26.1603,6.68154 31.94006,12.08703 6.03539,5.64456 9.48867,18.6799 10.72239,40.47456 0.34365,6.07095 0.84263,14.58607 1.10883,18.92247 0.26618,4.33639 0.73909,32.01051 1.05088,61.49802 0.31179,29.48752 0.80661,67.56899 1.09961,84.6255 l 0.53273,31.01182 -5.78508,11.03811 c -21.43551,40.89961 -32.75243,66.13875 -37.70933,84.09987 -2.53073,9.17001 -8.0646,42.5465 -8.0646,48.64017 0,0.79325 -111.01021,0.91646 -114.11959,0.12665 z"
     id="path1799"
     transform="scale(0.0175)" />
</svg>
