<?xml version="1.0" encoding="UTF-8" standalone="no"?>
<!-- Uploaded to: SVG Repo, www.svgrepo.com, Generator: SVG Repo Mixer Tools -->

<svg
   fill="#000000"
   width="800px"
   height="800px"
   viewBox="0 0 14 14"
   role="img"
   focusable="false"
   aria-hidden="true"
   version="1.1"
   id="svg4"
   sodipodi:docname="one_finger_hold.svg"
   inkscape:version="1.1.2 (0a00cf5339, 2022-02-04)"
   xmlns:inkscape="http://www.inkscape.org/namespaces/inkscape"
   xmlns:sodipodi="http://sodipodi.sourceforge.net/DTD/sodipodi-0.dtd"
   xmlns="http://www.w3.org/2000/svg"
   xmlns:svg="http://www.w3.org/2000/svg">
  <defs
     id="defs8" />
  <sodipodi:namedview
     id="namedview6"
     pagecolor="#ffffff"
     bordercolor="#666666"
     borderopacity="1.0"
     inkscape:pageshadow="2"
     inkscape:pageopacity="0.0"
     inkscape:pagecheckerboard="0"
     showgrid="false"
     inkscape:zoom="0.475625"
     inkscape:cx="963.99474"
     inkscape:cy="413.1406"
     inkscape:window-width="1920"
     inkscape:window-height="1048"
     inkscape:window-x="0"
     inkscape:window-y="0"
     inkscape:window-maximized="1"
     inkscape:current-layer="svg4" />
  <path
     d="m 6.828077,12.956595 c -0.024,-0.024 -0.0442,-0.1342 -0.045,-0.245 -8.7e-4,-0.1109 -0.0558,-0.3213 -0.12234,-0.4677 -0.11774,-0.2593 -0.23929,-0.3956 -1.01355,-1.137 -0.31934,-0.3057 -0.45892,-0.5276 -0.96449,-1.5331003 -0.66651,-1.3256 -0.86062,-1.6451 -1.38537,-2.2809 -0.50514,-0.612 -0.48358,-0.8601 0.0897,-1.0319 0.21664,-0.065 0.30464,-0.058 0.56821,0.042 0.36871,0.1409 0.88947,0.64 1.15739,1.1093 0.10258,0.1798 0.24648,0.393 0.31977,0.4738 0.15427,0.1703 0.40525,0.194 0.46291,0.044 0.0218,-0.057 0.0397,-1.2887 0.0397,-2.7375 0,-3.0305 -0.0245,-2.9018 0.56401,-2.9583 0.28104,-0.027 0.3539,-0.01 0.51866,0.1336 l 0.19169,0.165 v 1.3138 c 0,0.8913 0.021,1.2853 0.0653,1.2252 0.1798,-0.2437 0.56663,-0.3058 0.88356,-0.1419 0.24465,0.1265 0.32494,0.2815 0.32752,0.6322 0.002,0.2453 0.0131,0.2675 0.087,0.1702 0.34959,-0.4601 1.21794,-0.1378 1.21794,0.4521 v 0.2247 l 0.17219,-0.1354 c 0.20285,-0.1596 0.34062,-0.1687 0.64246,-0.043 0.39653,0.1656 0.41372,0.2586 0.43697,2.3647 l 0.021,1.8972003 -0.31394,0.6043 c -0.34743,0.6688 -0.47253,1.03 -0.53788,1.553 l -0.0437,0.3498 h -1.64805 c -0.90642,0 -1.66765,-0.02 -1.69161,-0.044 z M 5.352857,4.2090947 c -0.40669,-0.3673 -0.59297,-0.798 -0.59297,-1.3711 0,-1.90329998 2.48567,-2.54399998 3.423,-0.8822 0.1804,0.3198 0.2026,0.417 0.20148,0.8822 -10e-4,0.4396 -0.1203736,0.6694925 -0.2685436,0.9523925 -0.15717,0.3002 -0.4938364,0.6487075 -0.6273364,0.6487075 0.4387045,-1.1212938 -0.57855,-4.26174092 -2.0089372,-2.3029551 -0.37581,0.6079 -0.5146228,1.2190551 -0.00666,1.7976551 0.1344,0.1531 0.20267,0.2929 0.18914,0.3875 -0.0202,0.1407 -0.0351,0.1353 -0.30917,-0.1122 z M 4.9810366,3.229521 c -0.60215,-1.3882 2.0982931,-2.88268659 2.8433431,-1.5671866 0.1774,0.3132 -0.1830027,2.4545603 -0.3358927,2.7767603 -0.18714,0.3943 -0.1471166,-0.9318414 -0.1038766,-1.4476414 0.047,-0.5607 0.084066,-0.5018586 -0.2269334,-0.7635586 -0.37415,-0.3148 -1.1256396,-0.2879 -1.3656296,0.1329 -0.0472,0.083 -0.10057,0.4152 -0.11854,0.7387 l -0.01148,1.2218 z"
     id="path2"
     sodipodi:nodetypes="cccccccccccscccsccccsccccccccscccsccccccccccccccccc"
     style="fill:#6d2324;fill-opacity:1" />
  <path
     style="fill:#fffff0;fill-rule:evenodd;stroke:#000000;stroke-width:2.80333;paint-order:fill markers stroke;fill-opacity:1"
     d="m 394.74889,741.72716 c -3.89673,-0.59049 -6.05862,-2.36966 -6.64286,-5.46685 -0.47639,-2.52529 -1.8162,-10.37435 -2.97741,-17.44236 -3.33618,-20.30669 -12.45115,-33.7388 -43.8418,-64.60669 -40.93835,-40.25659 -39.08851,-37.51517 -83.22006,-123.33084 -9.81215,-19.08016 -21.27363,-40.69536 -25.46995,-48.03379 -4.19631,-7.3384 -7.62966,-13.73445 -7.62966,-14.2134 0,-1.4945 -14.20242,-21.16359 -31.09813,-43.06817 -20.49936,-26.57655 -26.34008,-36.56814 -26.10986,-44.66553 0.36473,-12.82792 5.14998,-17.03815 28.14868,-24.76619 14.70902,-4.94253 36.85976,3.32531 59.19984,22.09657 9.80142,8.23562 34.95607,37.24707 35.13025,40.5165 0.0514,0.96412 4.59725,8.3758 10.10196,16.47041 11.15094,16.39733 21.342,23.58749 30.25966,21.3493 5.40536,-1.35666 5.52623,-1.77823 6.27291,-21.87879 0.41874,-11.27252 0.98966,-73.44206 1.26872,-138.15454 0.6644,-154.07374 1.08951,-158.7287 15.12289,-165.59573 8.60343,-4.20996 32.09704,-5.43527 39.90282,-2.08113 2.89093,1.24223 8.33114,5.21052 12.08935,8.81842 l 6.83312,6.55981 0.079,43.52024 c 0.0749,41.29826 1.81185,97.4565 3.05623,98.81469 0.31725,0.34625 4.13118,-1.78253 8.47544,-4.73061 14.47815,-9.82515 41.6878,-5.74638 53.91542,8.082 6.25984,7.07946 8.06124,13.61885 8.06124,29.26394 v 10.64303 l 5.78187,-5.36352 c 12.26365,-11.37633 28.65591,-12.9681 46.01482,-4.46828 15.33454,7.5086 20.46082,14.98622 21.7907,31.78582 l 1.05124,13.27979 4.40278,-4.12052 c 6.01049,-5.62512 16.54722,-10.87504 21.82654,-10.87504 6.40255,0 27.38183,7.75599 31.80371,11.75775 5.08254,4.59961 9.70603,19.81475 11.12175,36.59968 0.63397,7.51642 1.75266,55.76872 2.48599,107.22733 l 1.3333,93.5611 -19.04151,38.00806 c -19.60248,39.12775 -27.80418,64.05422 -30.9042,93.92361 l -1.25471,12.08936 -90.78171,-0.31502 c -49.92992,-0.17324 -93.38121,-0.70894 -96.55842,-1.19041 z"
     id="path1734"
     transform="scale(0.0175)" />
</svg>
