<?xml version="1.0" encoding="UTF-8" standalone="no"?>
<!-- Uploaded to: SVG Repo, www.svgrepo.com, Generator: SVG Repo Mixer Tools -->

<svg
   fill="#000000"
   width="800px"
   height="800px"
   viewBox="0 0 14 14"
   role="img"
   focusable="false"
   aria-hidden="true"
   version="1.1"
   id="svg4"
   sodipodi:docname="pinch_close.svg"
   inkscape:version="1.1.2 (0a00cf5339, 2022-02-04)"
   xmlns:inkscape="http://www.inkscape.org/namespaces/inkscape"
   xmlns:sodipodi="http://sodipodi.sourceforge.net/DTD/sodipodi-0.dtd"
   xmlns="http://www.w3.org/2000/svg"
   xmlns:svg="http://www.w3.org/2000/svg">
  <defs
     id="defs8" />
  <sodipodi:namedview
     id="namedview6"
     pagecolor="#ffffff"
     bordercolor="#666666"
     borderopacity="1.0"
     inkscape:pageshadow="2"
     inkscape:pageopacity="0.0"
     inkscape:pagecheckerboard="0"
     showgrid="false"
     inkscape:zoom="0.95125"
     inkscape:cx="402.1025"
     inkscape:cy="400"
     inkscape:window-width="1920"
     inkscape:window-height="1048"
     inkscape:window-x="0"
     inkscape:window-y="0"
     inkscape:window-maximized="1"
     inkscape:current-layer="svg4" />
  <path
     d="m 8.12441,12.961763 c -0.0211,-0.021 -0.0384,-0.094 -0.0384,-0.1624 0,-0.068 -0.0434,-0.2515 -0.0964,-0.4071 -0.077,-0.2259 -0.21506,-0.3995 -0.68378,-0.8595 -0.58327,-0.5724 -0.59061,-0.583 -1.05909,-1.5381005 -0.51694,-1.0539 -0.77974,-1.4893 -1.21313,-2.0101 -0.30495,-0.3664 -0.39636,-0.5878 -0.3039,-0.736 0.15376,-0.2464 0.63155,-0.3074 0.98383,-0.1255 0.29042,0.1499 0.59998,0.4813 0.95366,1.021 0.30722,0.4687 0.46244,0.5704 0.59465,0.3896 0.10339,-0.1414 0.10144,-1.868 -0.002,-2.1542 -0.0402,-0.1108 -0.28129,-0.4735 -0.53568,-0.806 -0.60145,-0.786 -0.61847,-0.8198 -0.53691,-1.0669 0.0879,-0.2664 0.30798,-0.4299 0.57865,-0.4299 0.20886,0 0.2466,0.033 0.87019,0.7614 0.35853,0.4188 0.69721,0.8139 0.75262,0.878 0.0923,0.1067 0.10564,0.1084 0.15866,0.02 0.0809,-0.1345 0.36486,-0.1842 0.60305,-0.1056 0.29471,0.097 0.43288,0.304 0.43288,0.6478 l 0,0.2864 0.11005,-0.1359 c 0.09,-0.1111 0.16436,-0.1359 0.40772,-0.1359 0.26345,0 0.31698,0.022 0.46566,0.188 0.11749,0.1315 0.16799,0.2483 0.16799,0.3886 l 0,0.2006 0.11514,-0.1151 c 0.23367,-0.2337 0.75236,-0.085 0.89513,0.2568 0.0616,0.1475 0.0815,0.5788 0.0863,1.8736 l 0.006,1.6819005 -0.31641,0.6413 c -0.30365,0.6155 -0.44087,1.0579 -0.44087,1.4214 l 0,0.1699 -1.45846,0 c -0.80216,0 -1.47574,-0.017 -1.49685,-0.038 z m -5.80662,-1.9355 -0.15509,-0.1274 0.46443,-0.6299 0.46444,-0.6299005 -0.13146,-0.1064 c -0.0723,-0.059 -0.17243,-0.1294 -0.22251,-0.1574 -0.0501,-0.028 -0.0783,-0.062 -0.0627,-0.076 0.0156,-0.014 0.36123,-0.1941 0.76813,-0.4004 0.72356,-0.3667 0.73918,-0.3716 0.71029,-0.2236 -0.0163,0.083 -0.0754,0.4492 -0.13147,0.8134 -0.056,0.3641 -0.10943,0.6721005 -0.11861,0.6844005 -0.009,0.012 -0.10753,-0.047 -0.21854,-0.1315 L 3.48286,9.8876625 3.01619,10.522863 c -0.25667,0.3494 -0.4839,0.6344 -0.50497,0.6332 -0.0211,-10e-4 -0.10809,-0.059 -0.19338,-0.1295 z m 2.5131,-2.5673005 c -1.04698,-0.4756 -0.72548,-2.0147 0.42207,-2.0206 0.30902,0 0.65163,0.1694 0.84354,0.421 0.20545,0.2694 0.1845,0.3604 -0.043,0.1869 -0.62371,-0.4758 -1.17581,-0.4602 -1.48181,0.042 -0.21309,0.3494 -0.0891,0.904 0.24174,1.0811 0.2062,0.1103 0.42073,0.4007 0.29332,0.3969 -0.0238,-7e-4 -0.14788,-0.049 -0.27585,-0.1069 z m 1.28847,-2.9697 c -0.11479,-0.078 -0.26329,-0.2546 -0.33001,-0.3924 -0.33043,-0.6826 0.10133,-1.4527 0.85505,-1.5251 0.54474,-0.052 1.05616,0.3474 1.13269,0.8854 l 0.0319,0.224 -0.16333,-0.2015 c -0.37261,-0.4597 -0.51522,-0.5831 -0.72938,-0.6312 -0.58208,-0.1306 -1.12158,0.4144 -0.96176,0.9716 0.03,0.1046 0.16,0.3298 0.28892,0.5006 0.2532,0.3353 0.20926,0.3951 -0.12403,0.1686 z m 1.62019,-1.9437 c -5.7e-4,-0.04 0.0548,-0.4147 0.12312,-0.8317 l 0.12417,-0.7584 0.22348,0.1479 c 0.12291,0.081 0.23093,0.1376 0.24004,0.1251 0.009,-0.013 0.20532,-0.2884 0.43602,-0.6129 0.2307,-0.3245 0.43646,-0.6006 0.45725,-0.6134 0.0208,-0.013 0.1145,0.038 0.20823,0.1125 l 0.17043,0.1359 -0.18228,0.2472 c -0.10026,0.136 -0.30472,0.4228 -0.45435,0.6374 l -0.27206,0.3901 0.19286,0.161 0.19286,0.161 -0.54225,0.2907 c -0.89633,0.4806 -0.91634,0.4894 -0.91752,0.4076 z"
     id="path2"
     style="fill:#6d2324;fill-opacity:1" />
  <path
     style="fill:#fffff0;fill-rule:evenodd;stroke:#000000;stroke-width:1.40166;paint-order:fill markers stroke;fill-opacity:1"
     d="m 541.91853,743.14118 c -1.15637,-0.18802 -18.77748,-0.49737 -39.15803,-0.68742 -30.9636,-0.28875 -37.31095,-0.60099 -38.60927,-1.8993 -0.85456,-0.85456 -2.06065,-5.33219 -2.68022,-9.95029 -1.1321,-8.43844 -4.94645,-22.08107 -8.06811,-28.85686 -3.9537,-8.5818 -11.97426,-17.92633 -36.58293,-42.62174 -24.47056,-24.55681 -32.10195,-33.49128 -38.47082,-45.03978 -1.64186,-2.97714 -11.67832,-22.67975 -22.30323,-43.78356 -10.62492,-21.10381 -20.40613,-40.26281 -21.73601,-42.57555 -1.32989,-2.31275 -4.63195,-8.22602 -7.33792,-13.14061 -10.03135,-18.21897 -22.86143,-37.45615 -33.3435,-49.99463 -8.45693,-10.11602 -18.81232,-24.64178 -21.8683,-30.67519 -1.93953,-3.82922 -3.21669,-8.18546 -3.47124,-11.84003 -0.37472,-5.37967 -0.14158,-6.08469 3.35156,-10.13512 6.53393,-7.57637 15.53212,-10.9329 29.50444,-11.00585 12.27613,-0.0641 22.47385,3.20078 33.85425,10.83868 5.75133,3.85997 19.87444,17.66376 26.13489,25.54398 2.29609,2.89015 4.64778,5.78871 5.22596,6.44123 1.08437,1.22378 3.21207,4.23174 17.09393,24.16586 4.47482,6.42577 9.7765,13.6415 11.7815,16.03494 4.05114,4.83599 10.63547,8.6047 13.65416,7.81528 7.9209,-2.07136 9.6039,-12.98952 9.60733,-62.32583 0.003,-40.77015 -1.70993,-60.09371 -6.10447,-68.8712 -1.58529,-3.16642 -15.02061,-23.72 -16.14855,-24.70434 -0.33127,-0.28909 -0.88568,-1.23522 -1.23205,-2.1025 -0.34635,-0.86728 -4.6773,-6.78055 -9.6243,-13.1406 -4.94701,-6.36005 -9.93254,-12.77448 -11.07893,-14.25429 -9.65585,-12.46408 -17.33514,-23.62235 -20.12756,-29.24606 -2.87733,-5.79468 -3.25176,-7.46624 -2.75363,-12.29267 0.74206,-7.1899 6.04041,-18.26857 10.68878,-22.3499 7.8431,-6.88633 12.84899,-8.973 22.65027,-9.44161 6.80068,-0.32514 9.86581,-0.0291 12.16271,1.1749 3.78441,1.98366 10.39589,8.28949 19.36767,18.4723 3.75681,4.2639 7.54015,8.48102 8.40743,9.37137 0.86728,0.89035 2.52299,2.88015 3.67937,4.42178 1.78636,2.38151 6.80553,8.16303 16.81997,19.37474 1.15637,1.29462 3.82862,4.44368 5.93832,6.99792 2.10971,2.55423 4.94808,5.85736 6.30749,7.34028 1.35942,1.48292 4.12738,4.75326 6.15104,7.26742 2.02365,2.51416 4.96023,6.03148 6.52572,7.81626 14.20791,16.19808 15.7976,17.42165 17.13988,13.19249 1.71718,-5.41035 15.98907,-10.22284 26.77252,-9.02772 14.46272,1.6029 25.65175,9.08911 30.82349,20.62299 1.69525,3.78072 2.22153,7.68147 2.60367,19.29826 l 0.47895,14.55975 4.71417,-5.38901 c 7.20351,-8.2347 9.21157,-8.98944 23.95079,-9.00214 14.67436,-0.0126 18.03831,1.00217 24.17872,7.29407 10.14493,10.39525 13.1406,16.79149 13.1406,28.0573 v 7.64002 l 3.94218,-3.7769 c 2.1682,-2.07728 5.50506,-4.5639 7.41526,-5.52581 14.03738,-7.06876 37.24375,1.33345 44.86801,16.24512 5.00955,9.79777 5.52666,19.81959 6.45621,125.1243 l 0.70094,79.40537 -5.29145,11.00199 c -2.91029,6.05109 -9.08721,18.82818 -13.72648,28.39352 -16.44857,33.91397 -23.11339,54.88148 -24.21158,76.16957 l -0.70499,13.66623 -44.67806,0.12524 c -24.57293,0.0689 -45.62418,-0.0286 -46.78055,-0.21665 z"
     id="path1047"
     transform="scale(0.0175)" />
</svg>
