<?xml version="1.0" encoding="UTF-8" standalone="no"?>
<!-- Uploaded to: SVG Repo, www.svgrepo.com, Generator: SVG Repo Mixer Tools -->

<svg
   fill="#000000"
   width="800px"
   height="800px"
   viewBox="0 0 14 14"
   role="img"
   focusable="false"
   aria-hidden="true"
   version="1.1"
   id="svg4"
   sodipodi:docname="pinch_open.svg"
   inkscape:version="1.1.2 (0a00cf5339, 2022-02-04)"
   xmlns:inkscape="http://www.inkscape.org/namespaces/inkscape"
   xmlns:sodipodi="http://sodipodi.sourceforge.net/DTD/sodipodi-0.dtd"
   xmlns="http://www.w3.org/2000/svg"
   xmlns:svg="http://www.w3.org/2000/svg">
  <defs
     id="defs8" />
  <sodipodi:namedview
     id="namedview6"
     pagecolor="#ffffff"
     bordercolor="#666666"
     borderopacity="1.0"
     inkscape:pageshadow="2"
     inkscape:pageopacity="0.0"
     inkscape:pagecheckerboard="0"
     showgrid="false"
     inkscape:zoom="0.95125"
     inkscape:cx="401.05125"
     inkscape:cy="400"
     inkscape:window-width="1920"
     inkscape:window-height="1048"
     inkscape:window-x="0"
     inkscape:window-y="0"
     inkscape:window-maximized="1"
     inkscape:current-layer="svg4" />
  <path
     d="m 7.9765655,12.70595 c -0.0988,-0.4605 -0.21093,-0.6281 -0.81692,-1.2204 -0.56023,-0.5475 -0.57122,-0.5637 -1.04237,-1.5323 -0.53158,-1.0929 -0.77098,-1.4932 -1.1739,-1.9628 -0.15117,-0.1762 -0.30717,-0.3818 -0.34665,-0.4569 -0.23758,-0.4517 0.42143,-0.7635 0.99521,-0.4708 0.30824,0.1573 0.64131,0.5141 0.94456,1.0119 0.28016,0.4599 0.39589,0.5578 0.5469,0.4626 0.0898,-0.057 0.10384,-0.1872 0.11786,-1.0948 0.0128,-0.8272 -0.002,-1.0674 -0.0728,-1.217 -0.0488,-0.1026 -0.31153,-0.4711 -0.58388,-0.8191 -0.42058,-0.5373 -0.49518,-0.6655 -0.49518,-0.8507 0,-0.3581 0.33215,-0.6283 0.70663,-0.5749 0.11973,0.017 0.64649,0.5819 1.45198,1.5568 0.15133,0.1832 0.17023,0.1906 0.25882,0.102 0.21495,-0.2149 0.54505,-0.1933 0.84021,0.055 0.16071,0.1353 0.17944,0.185 0.1811,0.4806 0.002,0.2712 0.0145,0.3134 0.0728,0.2374 0.17813,-0.232 0.4617995,-0.2829 0.7676795,-0.1378 0.21329,0.1012 0.3227,0.2925 0.3227,0.5643 l 0,0.183 0.11877,-0.1275 c 0.15054,-0.1615 0.42907,-0.1659 0.68365,-0.011 0.10493,0.064 0.21344,0.176 0.24114,0.2488 0.0277,0.073 0.0598,0.9052 0.0714,1.8495 l 0.021,1.717 -0.33373,0.6991 c -0.25196,0.5277 -0.35003,0.8096 -0.40028,1.1504 l -0.0666,0.4515 -1.4735295,0 -1.47352,0 z m -5.75321,-1.8757 c 0.0172,-0.072 0.0772,-0.4325 0.13347,-0.801 0.0562,-0.3684 0.11087,-0.6811 0.12143,-0.6949 0.0106,-0.014 0.0988,0.034 0.19614,0.1059 0.0973,0.072 0.20365,0.1219 0.23631,0.111 0.0327,-0.011 0.24809,-0.2793 0.47874,-0.5965 0.23066,-0.3172 0.44511,-0.5851 0.47657,-0.5954 0.0315,-0.01 0.12835,0.04 0.21532,0.112 l 0.15813,0.1307 -0.46396,0.6262 c -0.25517,0.3444 -0.46395,0.6384 -0.46395,0.6533 0,0.015 0.093,0.09 0.20659,0.1674 l 0.20659,0.1404 -0.19203,0.1118 c -0.30558,0.178 -1.25503,0.6602 -1.29983,0.6602 -0.0224,0 -0.0267,-0.059 -0.01,-0.1311 z m 2.45037,-2.427 c -0.28326,-0.1286 -0.512,-0.4094 -0.59725,-0.7332 -0.1727,-0.6558 0.34733,-1.3107 1.0409,-1.3107 0.41054,0 0.77402,0.2259 0.97121,0.6036 0.10279,0.1969 0.0919,0.1936 -0.35463,-0.1084 -0.28649,-0.1937 -0.3911,-0.2323 -0.62052,-0.2289 -0.31955,0.01 -0.5354,0.1262 -0.69765,0.3922 -0.20757,0.3405 -0.0973,0.8595 0.22603,1.0639 0.23788,0.1503 0.44623,0.4355 0.31537,0.4317 -0.024,-8e-4 -0.15159,-0.05 -0.28346,-0.1102 z m 1.33986,-2.99 c -0.25795,-0.2004 -0.35715,-0.3416 -0.43592,-0.6204 -0.23797,-0.8422 0.63164,-1.5973 1.44722,-1.2565 0.11794,0.049 0.26498,0.1345 0.32674,0.1893 0.13925,0.1237 0.32586,0.521 0.32758,0.6975 9.7e-4,0.1069 -0.057,0.063 -0.30804,-0.233 -0.35355,-0.4169 -0.59243,-0.5312 -0.94417,-0.4519 -0.34875,0.079 -0.56609,0.3371 -0.59663,0.7094 -0.0239,0.2912 -0.009,0.3334 0.24421,0.703 0.27933,0.4073 0.25578,0.5087 -0.061,0.2626 z m 1.56085,-1.9083 -0.13518,-0.1126 0.18987,-0.2786 c 0.10443,-0.1533 0.3161,-0.4465 0.47038,-0.6517 l 0.28051,-0.3731 -0.20982,-0.1426 c -0.1154,-0.078 -0.1876,-0.1642 -0.16045,-0.1906 0.0538,-0.052 1.38233,-0.7556 1.42739,-0.7556 0.0152,0 -0.004,0.1901 -0.043,0.4223 -0.0388,0.2323 -0.10183,0.612 -0.13997,0.8438 l -0.0694,0.4214 -0.19626,-0.1497 c -0.10795,-0.082 -0.22115,-0.1343 -0.25156,-0.1155 -0.0304,0.019 -0.24374,0.2962 -0.47405,0.6166 -0.23031,0.3204 -0.44903,0.5816 -0.48605,0.5805 -0.037,-9e-4 -0.12814,-0.053 -0.20248,-0.1146 z"
     id="path2"
     style="fill:#6d2324;fill-opacity:1" />
  <path
     style="fill:#fffff0;fill-rule:evenodd;stroke:#000000;stroke-width:1.40166;paint-order:fill markers stroke;fill-opacity:1"
     d="m 458.51733,739.82228 c -0.52943,-2.17164 -1.99112,-8.44252 -3.24821,-13.93529 -2.55082,-11.1457 -3.41947,-13.84401 -7.02801,-21.83125 -5.51999,-12.21811 -12.13314,-20.02587 -44.28252,-52.28176 -11.52555,-11.56373 -22.21564,-22.91721 -23.75575,-25.22996 -1.54012,-2.31275 -4.0766,-6.09724 -5.63663,-8.40999 -1.56002,-2.31274 -14.02014,-26.43889 -27.68916,-53.61366 -13.66902,-27.17477 -27.82315,-54.37582 -31.45364,-60.44678 -5.98202,-10.00324 -15.00881,-24.14209 -17.11452,-26.80684 -0.45689,-0.57818 -2.28635,-2.94349 -4.06547,-5.25624 -6.98831,-9.08436 -8.88906,-11.47879 -10.40636,-13.10917 -5.07083,-5.44876 -12.98113,-15.59015 -19.53702,-25.04742 -4.11416,-5.93493 -5.45365,-11.85061 -4.1984,-18.54166 0.93459,-4.98183 8.11198,-12.46468 14.78644,-15.41573 7.11691,-3.14669 21.56197,-3.88343 31.28802,-1.5958 6.22048,1.46311 19.2865,7.08718 20.76214,8.93676 0.28909,0.36235 3.16029,2.61746 6.38043,5.01135 11.9217,8.86274 26.42595,26.73688 45.13074,55.61638 7.17745,11.08172 11.22305,16.27333 14.38127,18.45512 4.84206,3.34503 6.3299,3.61265 10.22294,1.83886 6.41296,-2.92193 7.52582,-13.40183 7.85464,-73.96735 0.23302,-42.92217 -0.43066,-51.04612 -4.835,-59.18444 -2.64173,-4.88138 -15.55169,-24.16392 -17.03318,-25.44105 -0.33534,-0.28909 -1.91915,-2.4575 -3.51956,-4.81867 -1.60041,-2.36118 -3.74654,-5.19955 -4.76916,-6.30749 -1.02263,-1.10795 -4.53461,-5.56241 -7.80441,-9.89881 -11.58242,-15.36061 -15.50791,-20.52935 -17.52471,-23.07499 -3.81653,-4.81728 -9.43089,-17.3819 -9.85255,-22.04943 -0.86619,-9.58821 2.61137,-19.50306 9.04302,-25.78251 9.37797,-9.15603 24.59958,-13.51808 33.59451,-9.62715 3.34429,1.44664 20.10392,17.31455 29.00485,27.46161 2.52839,2.88237 8.04536,9.02517 12.25993,13.65066 4.21456,4.62549 8.75865,9.82917 10.09798,11.56373 1.33932,1.73456 2.91827,3.66667 3.50879,4.29358 0.59051,0.6269 3.20244,3.65175 5.80428,6.72189 2.60184,3.07014 6.62286,7.78451 8.93561,10.47639 2.31275,2.69188 5.86071,6.96173 7.88436,9.48855 2.02366,2.52681 5.66292,6.67356 8.08725,9.21499 4.60769,4.83025 6.30959,4.98967 9.69683,0.9083 3.23445,-3.89727 11.00388,-7.24778 17.96105,-7.74556 12.2804,-0.87866 24.4145,4.24246 34.54897,14.58115 4.9812,5.08159 6.38539,10.18004 6.57141,23.86015 0.0684,5.03068 0.42776,10.56532 0.79854,12.29921 l 0.67418,3.15253 4.31945,-4.45091 c 9.12342,-9.40106 22.1178,-12.15495 35.9411,-7.61699 7.56279,2.48273 12.40115,5.55499 16.63655,10.56389 5.49762,6.50161 7.01248,11.10658 7.51394,22.84148 l 0.46247,10.82254 4.92304,-5.04068 c 8.53321,-8.73711 19.41845,-10.76543 32.69003,-6.09136 6.9256,2.43911 15.92263,9.08952 20.75825,15.34408 1.73652,2.24609 3.17016,18.06753 3.89633,42.99964 0.32839,11.27463 0.82005,28.30486 1.09258,37.84494 0.27252,9.54008 0.78461,41.94481 1.13795,72.01051 l 0.64246,54.66491 -3.65421,7.35874 c -6.0089,12.10051 -14.42221,29.86293 -14.42221,30.44856 0,0.3007 -2.28483,5.16812 -5.07739,10.81648 -2.79255,5.64837 -6.78669,14.75853 -8.87583,20.24481 -6.52771,17.1423 -7.8694,22.89477 -12.62448,54.12747 l -1.28039,8.40999 -84.32048,0.26906 -84.32047,0.26905 z"
     id="path917"
     transform="scale(0.0175)" />
</svg>
