<?xml version="1.0" encoding="UTF-8" standalone="no"?>
<!-- Uploaded to: SVG Repo, www.svgrepo.com, Generator: SVG Repo Mixer Tools -->

<svg
   height="800px"
   width="800px"
   version="1.1"
   id="Layer_1"
   viewBox="0 0 512 512"
   xml:space="preserve"
   sodipodi:docname="map-pin.svg"
   inkscape:version="1.1.2 (0a00cf5339, 2022-02-04)"
   xmlns:inkscape="http://www.inkscape.org/namespaces/inkscape"
   xmlns:sodipodi="http://sodipodi.sourceforge.net/DTD/sodipodi-0.dtd"
   xmlns="http://www.w3.org/2000/svg"
   xmlns:svg="http://www.w3.org/2000/svg"><defs
   id="defs9" /><sodipodi:namedview
   id="namedview7"
   pagecolor="#ffffff"
   bordercolor="#666666"
   borderopacity="1.0"
   inkscape:pageshadow="2"
   inkscape:pageopacity="0.0"
   inkscape:pagecheckerboard="0"
   showgrid="false"
   inkscape:zoom="0.95125"
   inkscape:cx="400"
   inkscape:cy="400"
   inkscape:window-width="1920"
   inkscape:window-height="1126"
   inkscape:window-x="0"
   inkscape:window-y="942"
   inkscape:window-maximized="1"
   inkscape:current-layer="Layer_1" />
<path
   style="fill:#a44546;fill-opacity:1"
   d="M256,0C154.739,0,72.348,82.386,72.348,183.652c0,67.027,16.956,92.392,148.945,289.772  l20.826,31.157C245.217,509.217,250.424,512,256,512s10.782-2.783,13.881-7.418l17.369-25.978  c135.054-202.011,152.402-227.967,152.402-294.951C439.652,82.386,357.261,0,256,0z M256,267.13  c-46.032,0-83.478-37.446-83.478-83.478s37.446-83.478,83.478-83.478s83.478,37.446,83.478,83.478S302.032,267.13,256,267.13z"
   id="path2" />
<path
   style="fill:#732f30;fill-opacity:1"
   d="M256,0v100.174c46.032,0,83.478,37.446,83.478,83.478S302.032,267.13,256,267.13V512  c5.576,0,10.782-2.783,13.881-7.418l17.369-25.978c135.054-202.011,152.402-227.967,152.402-294.951C439.652,82.386,357.261,0,256,0  z"
   id="path4" />
</svg>
