<?xml version="1.0" encoding="UTF-8" standalone="no"?>
<svg
   version="1.0"
   width="100.000000pt"
   height="100.000000pt"
   viewBox="0 0 100.000000 100.000000"
   preserveAspectRatio="xMidYMid meet"
   id="svg20"
   sodipodi:docname="point.svg"
   inkscape:version="1.1.2 (0a00cf5339, 2022-02-04)"
   xmlns:inkscape="http://www.inkscape.org/namespaces/inkscape"
   xmlns:sodipodi="http://sodipodi.sourceforge.net/DTD/sodipodi-0.dtd"
   xmlns="http://www.w3.org/2000/svg"
   xmlns:svg="http://www.w3.org/2000/svg">
  <defs
     id="defs24">
    <linearGradient
       id="linearGradient5424"
       inkscape:swatch="solid">
      <stop
         style="stop-color:#000000;stop-opacity:1;"
         offset="0"
         id="stop5422" />
    </linearGradient>
    <linearGradient
       id="linearGradient5385"
       inkscape:swatch="solid">
      <stop
         style="stop-color:#000000;stop-opacity:1;"
         offset="0"
         id="stop5383" />
    </linearGradient>
  </defs>
  <sodipodi:namedview
     id="namedview22"
     pagecolor="#ffffff"
     bordercolor="#666666"
     borderopacity="1.0"
     inkscape:pageshadow="2"
     inkscape:pageopacity="0.0"
     inkscape:pagecheckerboard="0"
     inkscape:document-units="pt"
     showgrid="false"
     inkscape:zoom="5.7075"
     inkscape:cx="52.124398"
     inkscape:cy="66.666667"
     inkscape:window-width="1920"
     inkscape:window-height="1126"
     inkscape:window-x="0"
     inkscape:window-y="1122"
     inkscape:window-maximized="1"
     inkscape:current-layer="svg20"
     inkscape:snap-global="true" />
  <g
     id="g838"
     style="stroke-width:1.2;stroke-miterlimit:4;stroke-dasharray:none">
    <g
       transform="translate(0.000000,100.000000) scale(0.100000,-0.100000)"
       fill="#000000"
       stroke="none"
       id="g18"
       style="fill:#4a6fa5;fill-opacity:1;stroke-width:12;stroke-miterlimit:4;stroke-dasharray:none">
      <path
         d="M281 857 l0 -134 100 -99 99 -99 0 140 0 140 -93 93 c-51 50 -95 92 -99 92 -4 0 -7 -60 -7 -133z"
         id="path2"
         style="fill:#4a6fa5;fill-opacity:1;stroke-width:12;stroke-miterlimit:4;stroke-dasharray:none;paint-order:fill markers stroke;stroke:#000000;stroke-opacity:1" />
      <path
         d="M592 897 l-92 -92 0 -140 0 -140 100 100 100 100 0 132 c0 73 -3 133 -8 133 -4 0 -49 -42 -100 -93z"
         id="path4"
         style="fill:#4a6fa5;fill-opacity:1;stroke-width:12;stroke-miterlimit:4;stroke-dasharray:none;paint-order:fill markers stroke;stroke:#000000;stroke-opacity:1" />
      <path
         d="M0 702 c0 -4 42 -49 93 -100 l92 -92 140 0 140 0 -100 100 -100 100 -132 0 c-73 0 -133 -3 -133 -8z"
         id="path6"
         style="fill:#4a6fa5;fill-opacity:1;stroke-width:12;stroke-miterlimit:4;stroke-dasharray:none;paint-order:fill markers stroke;stroke:#000000;stroke-opacity:1" />
      <path
         d="M615 610 l-100 -100 140 0 140 0 93 93 c50 51 92 96 92 100 0 4 -60 7 -133 7 l-132 0 -100 -100z"
         id="path8"
         style="fill:#4a6fa5;fill-opacity:1;stroke-width:12;stroke-miterlimit:4;stroke-dasharray:none;paint-order:fill markers stroke;stroke:#000000;stroke-opacity:1" />
      <path
         d="M92 397 c-50 -51 -92 -96 -92 -100 0 -4 60 -7 133 -7 l132 0 100 100 100 100 -140 0 -140 0 -93 -93z"
         id="path10"
         style="fill:#4a6fa5;fill-opacity:1;stroke-width:12;stroke-miterlimit:4;stroke-dasharray:none;paint-order:fill markers stroke;stroke:#000000;stroke-opacity:1" />
      <path
         d="M615 390 l100 -100 132 0 c73 0 133 3 133 8 0 4 -42 49 -93 100 l-92 92 -140 0 -140 0 100 -100z"
         id="path12"
         style="fill:#4a6fa5;fill-opacity:1;stroke-width:12;stroke-miterlimit:4;stroke-dasharray:none;paint-order:fill markers stroke;stroke:#000000;stroke-opacity:1" />
      <path
         d="M378 373 l-97 -98 0 -132 c0 -73 3 -133 7 -133 4 0 49 42 100 93 l93 93 -3 137 -3 137 -97 -97z"
         id="path14"
         style="fill:#4a6fa5;fill-opacity:1;stroke-width:12;stroke-miterlimit:4;stroke-dasharray:none;paint-order:fill markers stroke;stroke:#000000;stroke-opacity:1" />
      <path
         d="M500 335 l0 -140 93 -93 c51 -50 96 -92 100 -92 4 0 7 60 7 133 l0 132 -100 100 -100 100 0 -140z"
         id="path16"
         style="fill:#4a6fa5;fill-opacity:1;stroke-width:12;stroke-miterlimit:4;stroke-dasharray:none;paint-order:fill markers stroke;stroke:#000000;stroke-opacity:1" />
    </g>
  </g>
</svg>
