<?xml version="1.0" encoding="UTF-8" standalone="no"?>
<!-- Uploaded to: SVG Repo, www.svgrepo.com, Generator: SVG Repo Mixer Tools -->

<svg
   width="800px"
   height="800px"
   viewBox="0 0 24 24"
   fill="none"
   version="1.1"
   id="svg12"
   sodipodi:docname="zoom-in.svg"
   inkscape:version="1.1.2 (0a00cf5339, 2022-02-04)"
   xmlns:inkscape="http://www.inkscape.org/namespaces/inkscape"
   xmlns:sodipodi="http://sodipodi.sourceforge.net/DTD/sodipodi-0.dtd"
   xmlns="http://www.w3.org/2000/svg"
   xmlns:svg="http://www.w3.org/2000/svg">
  <defs
     id="defs16" />
  <sodipodi:namedview
     id="namedview14"
     pagecolor="#ffffff"
     bordercolor="#666666"
     borderopacity="1.0"
     inkscape:pageshadow="2"
     inkscape:pageopacity="0.0"
     inkscape:pagecheckerboard="0"
     showgrid="false"
     inkscape:zoom="0.88125"
     inkscape:cx="400"
     inkscape:cy="400"
     inkscape:window-width="1500"
     inkscape:window-height="926"
     inkscape:window-x="0"
     inkscape:window-y="42"
     inkscape:window-maximized="1"
     inkscape:current-layer="svg12" />
  <path
     d="M19.9604 11.4802C19.9604 13.8094 19.0227 15.9176 17.5019 17.4512C16.9332 18.0247 16.2834 18.5173 15.5716 18.9102C14.3594 19.5793 12.9658 19.9604 11.4802 19.9604C6.79672 19.9604 3 16.1637 3 11.4802C3 6.79672 6.79672 3 11.4802 3C16.1637 3 19.9604 6.79672 19.9604 11.4802Z"
     stroke="#333333"
     stroke-width="2"
     id="path2"
     style="fill:#ececec" />
  <path
     d="M18.1553 18.1553L21.8871 21.8871"
     stroke="#333333"
     stroke-width="2"
     stroke-linecap="round"
     id="path4" />
  <path
     d="M8 11.5492H15.0983"
     stroke="#333333"
     stroke-width="2"
     stroke-linecap="round"
     id="path6" />
  <path
     d="M8 11.5492H15.0983"
     stroke="#333333"
     stroke-width="2"
     stroke-linecap="round"
     id="path8" />
  <path
     d="M11.5492 15.0984L11.5492 8.00006"
     stroke="#333333"
     stroke-width="2"
     stroke-linecap="round"
     id="path10" />
  <path
     style="fill:#ececec;fill-rule:evenodd;stroke:#000000;stroke-width:1.513;paint-order:fill markers stroke"
     d="m 718.86525,761.39241 c -6.7059,-2.13539 -7.78314,-3.14345 -71.47667,-66.88662 -35.56747,-35.59521 -65.23273,-64.71856 -65.92279,-64.71856 -0.69005,0 -2.73831,1.30694 -4.5517,2.9043 -10.50594,9.25441 -48.35646,31.96186 -64.50627,38.6989 -3.78175,1.57759 -8.40782,3.54366 -10.28016,4.36905 -19.40451,8.55409 -50.01908,16.74346 -76.59575,20.48931 -22.96118,3.23627 -68.661,3.23121 -86.24113,-0.009 -1.56028,-0.28763 -7.57647,-1.33295 -13.36929,-2.32295 C 280.12576,686.08975 231.8124,665.03266 193.47518,636.19035 153.22629,605.90984 121.09212,567.42827 99.607214,523.7808 82.478748,488.98361 73.771404,460.16672 68.548714,420.99291 c -2.5258,-18.94526 -2.525704,-56.62668 1.95e-4,-76.59575 4.477764,-35.39997 13.233954,-65.72645 27.925186,-96.71702 5.652165,-11.92303 19.365255,-35.95086 24.783285,-43.42482 11.4257,-15.76133 16.52386,-22.23609 24.52191,-31.14325 31.54411,-35.12968 64.46326,-59.50903 105.62106,-78.221116 94.74196,-43.073727 202.74516,-37.313051 292.71313,15.612736 7.45133,4.38342 11.29476,6.91227 25.06659,16.49295 28.42639,19.77543 59.82565,53.44033 81.05464,86.90322 21.90055,34.52143 38.3109,77.08708 44.23475,114.73743 0.67642,4.29913 1.469,9.09321 1.7613,10.65349 1.82154,9.72352 2.97536,36.19251 2.37432,54.46809 -1.06878,32.49906 -5.60451,57.64524 -16.57908,91.91489 -6.74186,21.05234 -23.55787,54.49282 -37.376,74.32624 -2.17414,3.12057 -5.3631,7.71631 -7.08658,10.21277 -1.7235,2.49645 -4.34625,6.02217 -5.82835,7.83493 l -2.69472,3.29595 63.40514,63.0554 c 56.97666,56.66237 63.77369,63.80449 67.04012,70.44366 7.95524,16.16947 2.79582,33.74767 -12.81894,43.67427 -4.36724,2.77634 -12.84088,5.20661 -17.80746,5.10722 -1.752,-0.0351 -6.24928,-1.03936 -9.99396,-2.23179 z M 411.94466,630.8745 c 65.29103,-8.0275 125.76664,-41.66128 166.2034,-92.43478 25.60877,-32.15508 42.4922,-69.60249 50.64947,-112.34043 3.44764,-18.06303 4.22507,-54.81059 1.59814,-75.53986 C 619.8271,267.16263 568.37959,195.66824 492.01119,158.25248 368.3877,97.684665 219.13409,148.95808 158.25695,272.9078 c -20.09928,40.92338 -28.71348,88.44894 -24.28576,133.98731 6.46423,66.48351 40.61814,129.53578 92.61398,170.97671 20.07156,15.99712 46.29663,30.73868 70.75015,39.76986 13.76394,5.0833 35.73885,10.49468 51.03347,12.56714 14.28753,1.93599 50.18668,2.31187 63.57587,0.66568 z"
     id="path906"
     transform="scale(0.03)" />
  <path
     style="fill:#ececec;fill-rule:evenodd;stroke:#000000;stroke-width:1.513;paint-order:fill markers stroke"
     d="m 371.63121,532.89051 c -7.05688,-3.34594 -13.27414,-9.73623 -16.68159,-17.14583 -2.56662,-5.58118 -2.61478,-6.42825 -2.95164,-51.91489 l -0.34245,-46.24114 H 305.37071 259.0859 l -6.97342,-3.48465 c -19.55172,-9.77011 -24.37706,-34.57835 -9.86515,-50.71908 3.04109,-3.38243 7.45332,-6.71066 11.05261,-8.3372 5.95418,-2.69073 6.27348,-2.70933 52.1734,-3.03864 l 46.18257,-0.33136 0.34226,-46.19347 0.34226,-46.19347 3.16606,-6.44721 c 9.94129,-20.24402 34.63537,-25.04163 51.15962,-9.93939 10.89,9.95284 10.92254,10.14192 10.92254,63.46321 v 45.28934 l 46.80851,0.34185 c 45.11922,0.32951 46.99891,0.42986 52.08417,2.78062 6.38668,2.95236 13.31123,9.6529 16.2816,15.75488 1.37801,2.83082 2.35304,7.69601 2.62725,13.10939 0.56492,11.15215 -2.29525,18.29171 -10.16079,25.36351 -9.46577,8.51055 -9.97831,8.58167 -61.83857,8.58167 h -45.70844 l -0.33055,47.37589 -0.33055,47.37589 -3.36812,6.0809 c -6.35162,11.46748 -16.17246,17.1918 -29.45814,17.17042 -4.87942,-0.008 -8.54575,-0.79612 -12.56381,-2.70124 z"
     id="path945"
     transform="scale(0.03)" />
  <path
     style="fill:#4d4d4d;fill-rule:evenodd;stroke:#000000;stroke-width:1.513;paint-order:fill markers stroke"
     d="m 363.68794,630.15125 c -24.9783,-1.25325 -57.26341,-9.33511 -81.29307,-20.34991 -63.86043,-29.27256 -108.79563,-77.43771 -133.09863,-142.66578 -10.14321,-27.2239 -14.69058,-53.27406 -14.69058,-84.15684 0,-24.70378 1.81084,-39.10052 7.91267,-62.90824 31.4238,-122.60728 153.87728,-203.0721 278.14531,-182.77075 99.249,16.21407 178.59422,88.38511 202.79923,184.46268 8.60869,34.1707 9.57236,77.395 2.47281,110.91425 -20.65683,97.52744 -93.97013,171.04655 -192.46604,193.00635 -20.21027,4.5059 -41.65861,5.87928 -69.7817,4.46824 z m 36.56561,-96.62968 c 6.3888,-3.29683 12.17056,-9.24201 15.63308,-16.07497 l 2.83677,-5.5981 V 465.28595 418.7234 h 44.97473 c 48.20089,0 50.67393,-0.24357 58.94283,-5.8054 10.22042,-6.87444 14.67568,-16.62294 13.85737,-30.32113 -0.62726,-10.49991 -3.14338,-15.94062 -10.51376,-22.73441 -9.60329,-8.852 -7.90421,-8.5987 -60.45266,-9.01254 l -46.80851,-0.36864 v -44.53822 c 0,-50.48342 -0.24914,-52.39375 -7.97836,-61.1746 -6.85032,-7.78238 -15.424,-11.58284 -26.06419,-11.5535 -14.27435,0.0394 -23.74024,6.16972 -30.64387,19.84573 l -3.39868,6.73275 v 45.34315 45.34315 l -46.24114,0.36297 -46.24113,0.36296 -5.65581,2.78306 c -26.19527,12.88994 -26.3104,48.87449 -0.19726,61.66084 l 6.27758,3.07383 h 45.95965 45.95963 l 0.35293,46.24114 0.35292,46.24113 3.18429,6.48447 c 3.67278,7.47926 11.30383,14.72386 18.17654,17.2561 6.91213,2.54673 21.43962,1.79921 27.68705,-1.42467 z"
     id="path1021"
     transform="scale(0.03)" />
</svg>
