<?xml version="1.0" encoding="UTF-8" standalone="no"?>
<!-- Uploaded to: SVG Repo, www.svgrepo.com, Generator: SVG Repo Mixer Tools -->

<svg
   width="800px"
   height="800px"
   viewBox="0 0 24 24"
   fill="none"
   version="1.1"
   id="svg8"
   sodipodi:docname="zoom-out.svg"
   inkscape:version="1.1.2 (0a00cf5339, 2022-02-04)"
   xmlns:inkscape="http://www.inkscape.org/namespaces/inkscape"
   xmlns:sodipodi="http://sodipodi.sourceforge.net/DTD/sodipodi-0.dtd"
   xmlns="http://www.w3.org/2000/svg"
   xmlns:svg="http://www.w3.org/2000/svg">
  <defs
     id="defs12" />
  <sodipodi:namedview
     id="namedview10"
     pagecolor="#ffffff"
     bordercolor="#666666"
     borderopacity="1.0"
     inkscape:pageshadow="2"
     inkscape:pageopacity="0.0"
     inkscape:pagecheckerboard="0"
     showgrid="false"
     inkscape:zoom="0.88125"
     inkscape:cx="400"
     inkscape:cy="400"
     inkscape:window-width="1500"
     inkscape:window-height="926"
     inkscape:window-x="0"
     inkscape:window-y="42"
     inkscape:window-maximized="1"
     inkscape:current-layer="svg8" />
  <path
     d="M19.9604 11.4802C19.9604 13.8094 19.0227 15.9176 17.5019 17.4512C16.9332 18.0247 16.2834 18.5173 15.5716 18.9102C14.3594 19.5793 12.9658 19.9604 11.4802 19.9604C6.79672 19.9604 3 16.1637 3 11.4802C3 6.79672 6.79672 3 11.4802 3C16.1637 3 19.9604 6.79672 19.9604 11.4802Z"
     stroke="#333333"
     stroke-width="2"
     id="path2" />
  <path
     d="M18.1553 18.1553L21.8871 21.8871"
     stroke="#333333"
     stroke-width="2"
     stroke-linecap="round"
     id="path4" />
  <path
     d="M8 11.5492H15.0983"
     stroke="#333333"
     stroke-width="2"
     stroke-linecap="round"
     id="path6" />
  <path
     style="fill:#ececec;fill-rule:evenodd;stroke:#000000;stroke-width:1.513;paint-order:fill markers stroke;fill-opacity:1"
     d="m 718.86525,761.39241 c -6.7059,-2.13539 -7.78314,-3.14345 -71.47667,-66.88662 -35.56747,-35.59521 -65.23273,-64.71856 -65.92279,-64.71856 -0.69005,0 -2.73831,1.30694 -4.5517,2.9043 -10.50594,9.25441 -48.35646,31.96186 -64.50627,38.6989 -3.78175,1.57759 -8.40782,3.54366 -10.28016,4.36905 -19.40451,8.55409 -50.01908,16.74346 -76.59575,20.48931 -22.96118,3.23627 -68.661,3.23121 -86.24113,-0.009 -1.56028,-0.28763 -7.57647,-1.33295 -13.36929,-2.32295 C 280.12576,686.08975 231.8124,665.03266 193.47518,636.19035 153.22629,605.90984 121.09212,567.42827 99.607214,523.7808 82.478748,488.98361 73.771404,460.16672 68.548714,420.99291 c -2.5258,-18.94526 -2.525704,-56.62668 1.95e-4,-76.59575 4.477764,-35.39997 13.233954,-65.72645 27.925186,-96.71702 5.652165,-11.92303 19.365255,-35.95086 24.783285,-43.42482 11.4257,-15.76133 16.52386,-22.23609 24.52191,-31.14325 31.54411,-35.12968 64.46326,-59.50903 105.62106,-78.221116 94.74196,-43.073727 202.74516,-37.313051 292.71313,15.612736 7.45133,4.38342 11.29476,6.91227 25.06659,16.49295 28.42639,19.77543 59.82565,53.44033 81.05464,86.90322 21.90055,34.52143 38.3109,77.08708 44.23475,114.73743 0.67642,4.29913 1.469,9.09321 1.7613,10.65349 1.82154,9.72352 2.97536,36.19251 2.37432,54.46809 -1.06878,32.49906 -5.60451,57.64524 -16.57908,91.91489 -6.74186,21.05234 -23.55787,54.49282 -37.376,74.32624 -2.17414,3.12057 -5.3631,7.71631 -7.08658,10.21277 -1.7235,2.49645 -4.34625,6.02217 -5.82835,7.83493 l -2.69472,3.29595 63.40514,63.0554 c 56.97666,56.66237 63.77369,63.80449 67.04012,70.44366 7.95524,16.16947 2.79582,33.74767 -12.81894,43.67427 -4.36724,2.77634 -12.84088,5.20661 -17.80746,5.10722 -1.752,-0.0351 -6.24928,-1.03936 -9.99396,-2.23179 z M 396.77501,630.92118 c 92.53011,-5.62823 172.06522,-59.73122 211.88266,-144.13114 20.64362,-43.75771 27.60388,-96.24976 19.33217,-145.79713 -11.23929,-67.32322 -50.76377,-127.7524 -108.8409,-166.40738 -14.04316,-9.34685 -41.46491,-22.62666 -58.08059,-28.12727 -62.21549,-20.59642 -130.92924,-15.64086 -189.16459,13.64233 -37.83561,19.02536 -65.75988,42.91759 -92.82697,79.42353 -5.41427,7.30233 -15.70458,25.16612 -21.50988,37.34071 -27.53967,57.75495 -31.15781,126.66797 -9.86055,187.80943 17.51997,50.29736 54.35559,97.51519 97.9674,125.57973 14.05946,9.04738 16.84284,10.64482 27.23404,15.63036 30.65349,14.70706 60.43886,22.80061 91.9149,24.97595 6.86524,0.47446 12.73758,0.9332 13.04964,1.0194 0.31206,0.0863 8.81826,-0.34512 18.90267,-0.95852 z"
     id="path866"
     transform="scale(0.03)" />
  <path
     style="fill:#ececec;fill-opacity:1;fill-rule:evenodd;stroke:#000000;stroke-width:1.513;paint-order:fill markers stroke"
     d="m 256.86776,417.4876 c -6.08958,-1.7649 -14.41751,-8.16413 -18.24048,-14.01608 -5.0108,-7.67019 -6.71569,-16.24287 -4.94927,-24.88637 2.32769,-11.38993 8.34553,-18.9488 19.37164,-24.33226 l 6.24113,-3.04722 h 125.39007 125.39007 l 6.24114,2.9392 c 13.2643,6.24667 19.36599,15.13922 20.19324,29.42946 0.43955,7.59292 0.13684,9.39207 -2.52789,15.02488 -3.92621,8.2993 -12.52455,16.11632 -20.25107,18.41085 -5.00079,1.48507 -22.2589,1.69971 -129.53513,1.611 -70.50684,-0.0583 -125.29666,-0.54605 -127.32345,-1.13346 z"
     id="path942"
     transform="scale(0.03)" />
  <path
     style="fill:#4d4d4d;fill-opacity:1;fill-rule:evenodd;stroke:#000000;stroke-width:1.513;paint-order:fill markers stroke"
     d="m 369.57744,631.32684 c -0.31177,-0.31176 -3.807,-0.78639 -7.76718,-1.05473 -8.49287,-0.57547 -17.38486,-1.72886 -25.35636,-3.28898 -1.87234,-0.36644 -4.17021,-0.72098 -5.10638,-0.78787 -0.93617,-0.0668 -2.31806,-0.60663 -3.07087,-1.1994 -0.75279,-0.59277 -1.86645,-0.77016 -2.47478,-0.39419 -0.60833,0.37596 -1.4483,0.1298 -1.86661,-0.54704 -0.41831,-0.67685 -1.45852,-0.96279 -2.31158,-0.63545 -0.85305,0.32735 -1.87432,0.072 -2.2695,-0.56738 -0.39517,-0.6394 -1.37058,-0.91232 -2.16757,-0.60649 -0.79698,0.30584 -2.02192,-0.0168 -2.72209,-0.71696 -0.70017,-0.70017 -1.27303,-0.85306 -1.27303,-0.33977 0,0.51331 -0.76596,0.29759 -1.70213,-0.47936 -0.93617,-0.77695 -1.70213,-1.03227 -1.70213,-0.56738 0,0.4649 -0.76595,0.20958 -1.70212,-0.56737 -0.93617,-0.77696 -1.70213,-1.03227 -1.70213,-0.56738 0,0.4649 -0.76596,0.20958 -1.70213,-0.56737 -0.93617,-0.77696 -1.70213,-1.03228 -1.70213,-0.56738 0,0.4649 -0.76595,0.20958 -1.70212,-0.56738 -0.93617,-0.77695 -1.70213,-1.03227 -1.70213,-0.56737 0,0.4649 -0.76596,0.20958 -1.70213,-0.56738 -0.93617,-0.77695 -1.70995,-0.96713 -1.7195,-0.42262 -0.009,0.5445 -0.41471,0.36459 -0.90032,-0.39979 -0.48563,-0.76438 -1.88206,-1.5553 -3.1032,-1.7576 -1.22113,-0.20232 -3.30203,-0.9632 -4.62424,-1.69086 -1.32219,-0.72767 -2.72644,-1.00058 -3.12056,-0.60646 -0.39411,0.39412 -0.71658,0.0357 -0.71658,-0.79643 0,-0.83214 -0.33366,-1.17934 -0.74145,-0.77154 -0.40781,0.40781 -2.37202,-0.26628 -4.36493,-1.49796 -1.99291,-1.23168 -3.95712,-1.90577 -4.36492,-1.49796 -0.4078,0.4078 -0.74146,0.11558 -0.74146,-0.64939 0,-0.76497 -0.51064,-1.07525 -1.13475,-0.68953 -0.62412,0.38573 -1.13476,0.13041 -1.13476,-0.56737 0,-0.69779 -0.51063,-0.95311 -1.13475,-0.56738 -0.62411,0.38572 -1.13475,0.1304 -1.13475,-0.56738 0,-0.69778 -0.51064,-0.9531 -1.13475,-0.56737 -0.62412,0.38572 -1.13475,0.1304 -1.13475,-0.56738 0,-0.69778 -0.51064,-0.9531 -1.13476,-0.56737 -0.62411,0.38572 -1.13475,0.17027 -1.13475,-0.47879 0,-0.64906 -1.27659,-1.50051 -2.83688,-1.89212 -1.56028,-0.3916 -2.83688,-1.19742 -2.83688,-1.79072 0,-0.59328 -0.51063,-0.76311 -1.13475,-0.37738 -0.62411,0.38572 -1.13475,0.16054 -1.13475,-0.5004 0,-0.66095 -0.53199,-1.20173 -1.1822,-1.20173 -0.65021,0 -2.25946,-1.00362 -3.57611,-2.23026 -1.31664,-1.22665 -2.77369,-1.99553 -3.2379,-1.70864 -0.46419,0.28688 -1.14922,-0.27377 -1.52226,-1.24593 -0.37305,-0.97214 -1.139,-1.48278 -1.70213,-1.13475 -0.56312,0.34804 -1.32908,-0.1626 -1.70212,-1.13475 -0.37305,-0.97214 -1.13901,-1.48278 -1.70213,-1.13475 -0.56313,0.34804 -1.34471,-0.20333 -1.73686,-1.22524 -0.39214,-1.02191 -1.01968,-1.55133 -1.39452,-1.17649 -0.37485,0.37484 -1.62243,-0.44568 -2.77242,-1.8234 -1.14998,-1.37772 -2.10787,-2.00834 -2.12863,-1.40138 -0.0208,0.60694 -0.83865,-0.0398 -1.81752,-1.43742 -0.97888,-1.39754 -2.19962,-2.28151 -2.71276,-1.96437 -0.51314,0.31714 -1.76657,-0.6956 -2.7854,-2.25052 -1.01882,-1.55492 -2.38888,-2.82713 -3.04458,-2.82713 -0.65569,0 -3.75899,-2.80852 -6.89621,-6.24114 -3.13723,-3.43262 -6.40565,-6.24113 -7.26317,-6.24113 -0.85752,0 -2.33814,-1.50646 -3.29028,-3.34768 -0.95213,-1.84123 -4.02907,-5.26852 -6.83765,-7.61619 -2.80857,-2.34768 -5.1065,-4.91456 -5.1065,-5.70417 0,-0.78962 -1.27221,-2.26926 -2.82713,-3.28808 -1.55493,-1.01883 -2.55639,-2.2905 -2.22548,-2.82593 0.33092,-0.53543 -0.43942,-1.62368 -1.71187,-2.41834 -1.27244,-0.79466 -2.31353,-2.10398 -2.31353,-2.90961 0,-0.80562 -0.76596,-1.7587 -1.70213,-2.11794 -0.93617,-0.35925 -1.70213,-1.38053 -1.70213,-2.26951 0,-0.88898 -0.76302,-1.90914 -1.69561,-2.267 -0.93258,-0.35787 -1.41086,-1.1114 -1.06282,-1.67453 0.34802,-0.56312 -0.16261,-1.32908 -1.13476,-1.70213 -0.97214,-0.37304 -1.48278,-1.139 -1.13475,-1.70213 0.34803,-0.56312 -0.16261,-1.32908 -1.13475,-1.70213 -0.97214,-0.37303 -1.53281,-1.05806 -1.24592,-1.52225 0.28689,-0.46421 -0.482,-1.92126 -1.70864,-3.2379 -1.22665,-1.31666 -2.23026,-2.92591 -2.23026,-3.57612 0,-0.6502 -0.54078,-1.18219 -1.20173,-1.18219 -0.66094,0 -0.88613,-0.51064 -0.5004,-1.13476 0.38572,-0.62411 0.2159,-1.13475 -0.37739,-1.13475 -0.59329,0 -1.39911,-1.27659 -1.79072,-2.83688 -0.3916,-1.56028 -1.24306,-2.83688 -1.89211,-2.83688 -0.64906,0 -0.86451,-0.51063 -0.47879,-1.13475 0.38572,-0.62411 0.13041,-1.13475 -0.56737,-1.13475 -0.69779,0 -0.9531,-0.51064 -0.56738,-1.13475 0.38572,-0.62412 0.1304,-1.13475 -0.56738,-1.13475 -0.69778,0 -0.9531,-0.51064 -0.56737,-1.13476 0.38572,-0.62411 0.22009,-1.13475 -0.36806,-1.13475 -1.02521,0 -2.84678,-4.18744 -2.59155,-5.95744 0.0675,-0.46809 -0.41805,-0.85107 -1.07899,-0.85107 -0.66095,0 -0.88613,-0.51064 -0.50041,-1.13475 0.38572,-0.62411 0.13041,-1.13475 -0.56738,-1.13475 -0.69778,0 -0.95309,-0.51064 -0.56737,-1.13475 0.38572,-0.62412 0.0754,-1.13475 -0.68953,-1.13475 -0.76497,0 -1.06839,-0.32247 -0.67427,-0.71658 0.39411,-0.39412 0.11542,-1.79838 -0.61933,-3.12057 -0.73475,-1.3222 -1.22743,-2.78697 -1.09483,-3.25505 0.13259,-0.46809 -0.26956,-0.85107 -0.89367,-0.85107 -0.62412,0 -1.07428,-0.38298 -1.00038,-0.85106 0.0739,-0.46809 0.036,-1.10638 -0.0843,-1.41844 -0.12029,-0.31206 -0.44897,-1.82181 -0.73041,-3.355 -0.28144,-1.53319 -1.13711,-3.18494 -1.90149,-3.67057 -0.76438,-0.48561 -0.94428,-0.89077 -0.39978,-0.90032 0.54451,-0.01 0.35432,-0.78333 -0.42263,-1.7195 -0.77695,-0.93617 -1.03227,-1.70213 -0.56738,-1.70213 0.4649,0 0.20958,-0.76596 -0.56737,-1.70213 -0.77695,-0.93617 -1.03227,-1.70212 -0.56738,-1.70212 0.4649,0 0.27653,-0.68528 -0.41858,-1.52285 -0.69512,-0.83756 -0.9402,-1.8465 -0.54462,-2.24208 0.39558,-0.39558 0.0733,-1.49753 -0.71617,-2.44878 -0.78947,-0.95126 -1.05503,-1.72956 -0.59013,-1.72956 0.46489,0 0.22814,-0.74359 -0.52612,-1.65242 -0.75427,-0.90882 -1.06378,-2.15014 -0.68781,-2.75847 0.37596,-0.60833 0.15628,-1.43193 -0.4882,-1.83024 -0.64447,-0.39831 -0.86416,-1.22191 -0.48819,-1.83024 0.37596,-0.60833 0.19858,-1.72199 -0.39419,-2.47478 -0.59278,-0.75281 -1.1325,-2.1347 -1.1994,-3.07087 -0.0669,-0.93617 -0.42143,-3.23404 -0.78787,-5.10638 -0.36644,-1.87234 -0.90032,-4.93617 -1.18639,-6.80851 -0.28608,-1.87234 -0.7676,-4.93617 -1.07005,-6.80851 -1.88358,-11.66043 -2.54571,-46.67128 -1.14813,-60.70922 1.08516,-10.89987 1.34679,-12.99025 1.70426,-13.61702 0.17798,-0.31206 0.51308,-1.97163 0.74465,-3.68795 l 0.84211,-6.24113 c 0.23158,-1.71631 0.54737,-3.37589 0.70175,-3.68794 0.15439,-0.31206 0.20232,-1.00411 0.10651,-1.53789 -0.0958,-0.53377 0.39832,-1.66034 1.09807,-2.50349 0.69974,-0.84313 0.96464,-2.03069 0.58868,-2.63902 -0.37597,-0.60833 -0.1298,-1.44831 0.54704,-1.86661 0.67684,-0.41832 0.96279,-1.45852 0.63545,-2.31158 -0.32735,-0.85305 -0.0985,-1.85796 0.50852,-2.23312 0.60704,-0.37518 0.7961,-1.17985 0.42013,-1.78818 -0.37597,-0.60833 -0.0664,-1.84965 0.68781,-2.75847 0.75426,-0.90883 0.99102,-1.65242 0.52612,-1.65242 -0.46489,0 -0.20958,-0.76596 0.56738,-1.70213 0.77695,-0.93617 1.03227,-1.70213 0.56737,-1.70213 -0.46489,0 -0.20957,-0.76596 0.56738,-1.70213 0.77695,-0.93617 1.03227,-1.70212 0.56737,-1.70212 -0.46489,0 -0.20957,-0.76596 0.56738,-1.70213 0.77695,-0.93617 1.03227,-1.70213 0.56738,-1.70213 -0.4649,0 -0.20958,-0.76596 0.56737,-1.70213 0.77695,-0.93617 1.08303,-1.70213 0.68016,-1.70213 -0.40286,0 0.10398,-1.27659 1.12632,-2.83687 1.02234,-1.56029 1.48222,-2.83688 1.02196,-2.83688 -0.46025,0 -0.26809,-0.68528 0.42703,-1.52285 0.69512,-0.83756 0.92785,-1.85884 0.51719,-2.26951 -0.41066,-0.41065 -0.12077,-0.74665 0.64419,-0.74665 0.76497,0 1.07526,-0.51064 0.68954,-1.13475 -0.38573,-0.62412 -0.16054,-1.13475 0.5004,-1.13475 0.66095,0 1.09324,-0.38298 0.96064,-0.85107 -0.13259,-0.46808 0.36008,-1.93286 1.09483,-3.25506 0.73475,-1.32219 1.01345,-2.72644 0.61933,-3.12056 -0.39412,-0.39411 -0.0907,-0.71658 0.67427,-0.71658 0.76497,0 1.07526,-0.51064 0.68953,-1.13475 -0.38572,-0.62411 -0.1304,-1.13475 0.56738,-1.13475 0.69778,0 0.9531,-0.51064 0.56737,-1.13475 -0.38572,-0.62412 -0.21112,-1.13475 0.38801,-1.13475 0.59912,0 2.03351,-2.29596 3.18753,-5.10213 1.15402,-2.80618 2.51134,-5.10405 3.01626,-5.10639 0.50491,-0.002 0.60244,-0.51489 0.21671,-1.139 -0.38572,-0.62412 -0.0754,-1.13475 0.68954,-1.13475 0.76496,0 1.09237,-0.29848 0.72756,-0.66329 -0.3648,-0.3648 0.18839,-1.65795 1.22932,-2.87367 1.04092,-1.2157 1.86397,-2.5768 1.82899,-3.02466 -0.035,-0.44785 0.84099,-1.78522 1.94658,-2.97193 1.10559,-1.18673 1.77544,-2.53747 1.48855,-3.00167 -0.28689,-0.46419 0.27378,-1.14922 1.24592,-1.52226 0.97214,-0.37305 1.48278,-1.13901 1.13475,-1.70213 -0.34803,-0.56312 0.20333,-1.34471 1.22525,-1.73685 1.02191,-0.39215 1.55133,-1.01968 1.17648,-1.39453 -0.37484,-0.37484 0.44569,-1.62243 1.82341,-2.77242 1.37771,-1.14998 2.00833,-2.10787 1.40138,-2.12863 -0.60696,-0.0208 0.0313,-0.83266 1.41844,-1.80422 1.38709,-0.97156 2.52199,-2.38065 2.52199,-3.1313 0,-0.75065 1.02128,-2.00262 2.2695,-2.78215 1.24823,-0.77953 2.26951,-2.08293 2.26951,-2.89644 0,-0.81351 1.53191,-2.6117 3.40425,-3.99599 1.87234,-1.38428 3.40426,-2.97082 3.40426,-3.52564 0,-1.31691 20.30141,-21.61832 21.61832,-21.61832 0.55482,0 2.14136,-1.53192 3.52565,-3.40426 1.38428,-1.87234 3.16883,-3.40425 3.96567,-3.40425 0.79684,0 2.00303,-1.03558 2.68042,-2.30129 0.67738,-1.26571 1.68169,-2.02312 2.23178,-1.68314 0.5501,0.33998 1.80108,-0.5253 2.77995,-1.92284 0.97887,-1.39754 1.79601,-2.04438 1.81586,-1.43742 0.0198,0.60695 0.65814,0.33759 1.41844,-0.59858 0.76029,-0.93617 2.7866,-2.42671 4.50292,-3.31231 1.71631,-0.88561 3.12056,-2.03454 3.12056,-2.5532 0,-0.51865 0.76596,-0.943 1.70213,-0.943 0.93617,0 1.70213,-0.51064 1.70213,-1.13475 0,-0.62411 0.76596,-1.13475 1.70213,-1.13475 0.93617,0 1.70212,-0.54078 1.70212,-1.20172 0,-0.66095 0.51064,-0.88613 1.13476,-0.50041 0.62411,0.38573 1.13475,0.16054 1.13475,-0.5004 0,-0.66095 0.76595,-1.20173 1.70212,-1.20173 0.93618,0 1.70213,-0.54077 1.70213,-1.20172 0,-0.66094 0.51064,-0.88613 1.13475,-0.5004 0.62412,0.38572 1.13476,0.1304 1.13476,-0.56738 0,-0.69778 0.46703,-0.98005 1.03783,-0.62727 0.5708,0.35277 1.2091,0.25525 1.41844,-0.21672 0.50607,-1.14103 18.29788,-9.98765 19.3877,-9.64015 0.46808,0.14926 0.85106,-0.2694 0.85106,-0.93035 0,-0.66094 0.51064,-0.88613 1.13475,-0.5004 0.62412,0.38572 1.13476,0.1304 1.13476,-0.56738 0,-0.69778 0.47535,-0.9749 1.05634,-0.61583 0.58099,0.35907 1.38223,0.12555 1.78053,-0.51892 0.39831,-0.64447 1.19955,-0.87799 1.78054,-0.51892 0.58099,0.35907 1.05634,0.082 1.05634,-0.61583 0,-0.69778 0.47536,-0.97491 1.05634,-0.61584 0.581,0.35907 1.38223,0.12556 1.78054,-0.51891 0.39831,-0.64448 1.19955,-0.87799 1.78054,-0.51892 0.58098,0.35907 1.05634,0.027 1.05634,-0.73799 0,-0.76497 0.336,-1.05485 0.74666,-0.64419 0.41066,0.41066 1.43194,0.17792 2.2695,-0.5172 0.83757,-0.69511 1.52285,-0.88348 1.52285,-0.41858 0,0.46489 0.76596,0.20957 1.70213,-0.56738 0.93617,-0.77695 1.70213,-1.03227 1.70213,-0.56738 0,0.4649 0.76595,0.20958 1.70212,-0.56737 0.93617,-0.77695 1.70213,-1.03227 1.70213,-0.56738 0,0.4649 0.68528,0.27653 1.52285,-0.41858 0.83756,-0.69512 1.8465,-0.9402 2.24208,-0.54462 0.39558,0.39558 1.49753,0.0733 2.44878,-0.71617 0.95126,-0.78947 1.72955,-1.05503 1.72955,-0.59013 0,0.46489 0.68528,0.27653 1.52285,-0.41859 0.83756,-0.69512 1.8465,-0.94019 2.24208,-0.54461 0.39558,0.39557 1.47516,0.0919 2.39908,-0.67492 0.92391,-0.76678 2.17756,-1.08653 2.78589,-0.71056 0.60833,0.37596 1.40671,0.1971 1.77418,-0.39748 0.36747,-0.59458 1.55169,-1.09188 2.6316,-1.10512 1.07991,-0.0132 3.49539,-0.33066 5.36773,-0.70541 16.2179,-3.24597 26.46561,-4.10892 48.79432,-4.10892 22.32872,0 32.57642,0.86295 48.79433,4.10892 1.87234,0.37475 4.28782,0.69218 5.36773,0.70541 1.07991,0.0132 2.26412,0.51054 2.6316,1.10512 0.36747,0.59458 1.16584,0.77344 1.77417,0.39748 0.60833,-0.37597 1.86198,-0.0562 2.7859,0.71056 0.92391,0.76678 2.00349,1.07049 2.39908,0.67492 0.39557,-0.39558 1.40452,-0.15051 2.24208,0.54461 0.83757,0.69512 1.52284,0.88348 1.52284,0.41859 0,-0.4649 0.71221,-0.25419 1.58269,0.46825 0.87048,0.72243 2.01941,1.23512 2.55319,1.13931 0.53377,-0.0958 1.35349,-0.0499 1.82157,0.10203 0.46809,0.15192 1.3617,0.40388 1.98582,0.55991 0.62411,0.15603 1.39007,0.41135 1.70212,0.56738 0.31206,0.15602 1.07802,0.41134 1.70213,0.56737 0.62412,0.15603 1.39007,0.41135 1.70213,0.56738 0.31206,0.15603 0.95035,0.36561 1.41844,0.46574 0.46808,0.10013 2,0.82022 3.40425,1.60021 1.40426,0.77998 2.5532,1.1269 2.5532,0.77093 0,-0.35598 1.14893,-0.0101 2.55319,0.76853 1.40425,0.77866 2.93617,1.30727 3.40425,1.17467 0.46809,-0.13259 0.85107,0.35467 0.85107,1.0828 0,0.72813 0.32255,1.00133 0.71677,0.6071 0.39424,-0.39423 2.86318,0.54109 5.48654,2.07848 2.62336,1.53739 5.10932,2.45569 5.52436,2.04066 0.41502,-0.41503 0.7546,-0.12872 0.7546,0.63624 0,0.76497 0.51063,1.07526 1.13475,0.68953 0.62411,-0.38572 1.13475,-0.1304 1.13475,0.56738 0,0.69778 0.51064,0.9531 1.13475,0.56738 0.62411,-0.38573 1.13475,-0.13041 1.13475,0.56737 0,0.69778 0.51064,0.9531 1.13475,0.56738 0.62412,-0.38573 1.13476,-0.13041 1.13476,0.56737 0,0.69778 0.51063,0.9531 1.13475,0.56738 0.62411,-0.38572 1.13475,-0.13041 1.13475,0.56738 0,0.69778 0.51064,0.95309 1.13475,0.56737 0.62412,-0.38572 1.13475,-0.2425 1.13475,0.31826 0,1.09475 5.68096,4.17977 7.0922,3.8514 0.46809,-0.10891 0.85107,0.34275 0.85107,1.00369 0,0.66095 0.51063,0.88613 1.13475,0.50041 0.62411,-0.38572 1.13475,-0.16054 1.13475,0.50041 0,0.66094 0.76596,1.20172 1.70213,1.20172 0.93617,0 1.70212,0.54077 1.70212,1.20172 0,0.66095 0.45714,0.9192 1.01586,0.57389 0.5587,-0.3453 1.32106,0.16756 1.6941,1.13971 0.37305,0.97214 1.13901,1.48278 1.70213,1.13475 0.56313,-0.34803 1.31666,0.13024 1.67453,1.06283 0.35787,0.93258 1.43265,1.69561 2.38841,1.69561 0.95576,0 1.73774,0.51064 1.73774,1.13475 0,0.62411 0.71133,1.13475 1.58072,1.13475 0.8694,0 1.87465,0.76596 2.2339,1.70213 0.35924,0.93617 1.31231,1.70213 2.11794,1.70213 0.80563,0 2.11495,1.04109 2.90961,2.31353 0.79465,1.27245 1.85755,2.05846 2.36201,1.74669 0.50445,-0.31177 2.03193,0.94092 3.39439,2.78376 1.36247,1.84284 2.84793,3.22939 3.30103,3.08122 1.41356,-0.46225 28.62522,26.77633 28.62522,28.65354 0,0.59689 1.27222,1.91884 2.82714,2.93766 1.55492,1.01883 2.55639,2.29049 2.22547,2.82593 -0.33092,0.53543 0.43943,1.62368 1.71188,2.41834 1.27244,0.79465 2.31353,2.10398 2.31353,2.9096 0,0.80563 0.76596,1.75871 1.70213,2.11795 0.93617,0.35925 1.70212,1.3645 1.70212,2.23389 0,0.8694 0.51064,1.58072 1.13475,1.58072 0.62412,0 1.13476,0.78199 1.13476,1.73775 0,0.95575 0.76303,2.03054 1.69561,2.3884 0.93259,0.35787 1.41086,1.11141 1.06282,1.67453 -0.34803,0.56313 0.16261,1.32908 1.13475,1.70213 0.97216,0.37304 1.53281,1.05807 1.24593,1.52226 -0.28689,0.46421 0.38295,1.81495 1.48855,3.00167 1.10559,1.18671 2.10503,2.6683 2.22097,3.29241 0.11594,0.62412 0.939,1.98522 1.829,3.02466 0.89,1.03946 1.31972,2.18839 0.95491,2.55319 -0.3648,0.36481 -0.12289,0.66329 0.53759,0.66329 0.66047,0 1.52126,1.27659 1.91286,2.83688 0.39162,1.56028 1.24307,2.83688 1.89212,2.83688 0.64906,0 0.86451,0.51063 0.47879,1.13475 -0.38573,0.62411 -0.13041,1.13475 0.56737,1.13475 0.69778,0 0.9531,0.51064 0.56738,1.13475 -0.38573,0.62412 -0.13041,1.13475 0.56738,1.13475 0.69778,0 0.9531,0.51064 0.56737,1.13476 -0.38572,0.62411 -0.0755,1.13475 0.68953,1.13475 0.76497,0 1.0723,0.31854 0.68296,0.70788 -0.38933,0.38933 0.39474,2.81486 1.74239,5.39007 1.34765,2.5752 2.34704,5.06517 2.22088,5.53325 -0.12616,0.46809 0.36637,0.85107 1.0945,0.85107 0.72813,0 1.00142,0.32246 0.6073,0.71657 -0.39412,0.39412 -0.11434,1.79838 0.62173,3.12057 0.73607,1.3222 1.42023,2.78697 1.52035,3.25506 0.10009,0.46808 0.30972,1.10638 0.46575,1.41844 0.15603,0.31205 0.41135,1.07801 0.56738,1.70212 0.15603,0.62412 0.40799,1.51773 0.55991,1.98582 0.15192,0.46808 0.21575,1.23404 0.14184,1.70213 -0.0739,0.46808 0.4064,0.85106 1.06735,0.85106 0.66095,0 0.90794,0.47536 0.54887,1.05634 -0.35909,0.58099 -0.12556,1.38223 0.51891,1.78054 0.64447,0.39831 0.89979,1.16427 0.56737,1.70213 -0.33241,0.53786 -0.077,1.30382 0.56738,1.70212 0.64447,0.39831 0.87799,1.19955 0.51891,1.78054 -0.35907,0.58099 -0.24756,1.69464 0.24781,2.47478 0.49536,0.78015 0.97231,1.80142 1.05988,2.26951 0.0876,0.46808 0.26211,0.97872 0.38788,1.13475 0.12576,0.15603 0.41507,1.04964 0.64288,1.98581 0.73827,3.03374 1.66671,6.75046 2.33856,9.36171 0.36131,1.40425 0.89858,3.82978 1.19396,5.39007 0.29536,1.56028 0.79102,4.11347 1.10145,5.67376 0.54358,2.73213 1.19789,6.9815 2.18408,14.18439 3.20464,23.40593 2.26457,55.28727 -2.25856,76.59575 -1.3269,6.25102 -1.89515,9.73874 -1.89142,11.60886 0.002,1.07991 -0.48256,2.26413 -1.07714,2.6316 -0.59458,0.36747 -0.78728,1.14348 -0.4282,1.72447 0.35907,0.58099 0.2541,1.69464 -0.23327,2.47478 -0.48737,0.78015 -1.02814,2.05674 -1.20172,2.83688 -0.74364,3.34225 -1.29201,5.40906 -1.50537,5.67376 -0.12577,0.15603 -0.35633,0.79433 -0.51236,1.41844 -0.15602,0.62412 -0.41134,1.39007 -0.56737,1.70213 -0.15603,0.31206 -0.41135,1.07801 -0.56738,1.70213 -0.15603,0.62411 -0.41135,1.39007 -0.56737,1.70213 -0.15603,0.31205 -0.41135,1.07801 -0.56738,1.70212 -0.15603,0.62412 -0.41135,1.39007 -0.56738,1.70213 -0.15602,0.31206 -0.41134,1.07802 -0.56737,1.70213 -0.15603,0.62411 -0.41135,1.39007 -0.56738,1.70213 -0.15603,0.31205 -0.36561,0.95035 -0.46574,1.41844 -0.10009,0.46808 -0.82023,2 -1.60021,3.40425 -0.77998,1.40426 -1.13309,2.55319 -0.78469,2.55319 0.3484,0 -0.14607,1.1897 -1.0988,2.64378 -0.95275,1.45407 -1.39006,2.98599 -0.97179,3.40426 0.41825,0.41826 0.1346,0.76047 -0.63037,0.76047 -0.76497,0 -1.07526,0.51064 -0.68953,1.13476 0.38572,0.62411 0.16054,1.13475 -0.5004,1.13475 -0.66095,0 -1.07407,0.39337 -0.91804,0.87415 0.4547,1.40115 -3.9301,10.47336 -5.062,10.47336 -0.56617,0 -0.7138,0.51064 -0.32807,1.13476 0.38572,0.62411 0.1304,1.13475 -0.56738,1.13475 -0.69778,0 -0.9531,0.51064 -0.56737,1.13475 0.38572,0.62411 0.1304,1.13475 -0.56738,1.13475 -0.69778,0 -0.9531,0.51064 -0.56738,1.13475 0.38573,0.62412 0.17027,1.13476 -0.47878,1.13476 -0.64906,0 -1.50051,1.27659 -1.89212,2.83687 -0.3916,1.56029 -1.19743,2.83688 -1.79072,2.83688 -0.59328,0 -0.76311,0.51064 -0.37738,1.13476 0.38572,0.62411 0.16054,1.13475 -0.50041,1.13475 -0.66094,0 -1.20172,0.53199 -1.20172,1.18219 0,0.65022 -1.02094,2.27805 -2.26874,3.61741 -1.24781,1.33937 -2.90438,3.87121 -3.68126,5.62632 -0.77689,1.7551 -1.79851,3.1911 -2.27027,3.1911 -0.47176,0 -0.85775,0.71133 -0.85775,1.58072 0,0.8694 -0.76595,1.87464 -1.70212,2.23389 -0.93617,0.35924 -1.70213,1.38052 -1.70213,2.26951 0,0.88897 -0.76596,1.91025 -1.70213,2.2695 -0.93617,0.35924 -1.70213,1.31232 -1.70213,2.11795 0,0.80563 -1.02127,2.10258 -2.2695,2.88211 -1.24823,0.77953 -2.2695,2.08293 -2.2695,2.89644 0,0.8135 -1.53192,2.6117 -3.40426,3.99598 -1.87234,1.38429 -3.40425,3.00493 -3.40425,3.60145 0,1.4155 -18.99228,20.40777 -20.40778,20.40777 -0.59651,0 -2.20233,1.51186 -3.5685,3.35969 -1.36616,1.84784 -2.89092,3.10817 -3.38836,2.80073 -0.49746,-0.30744 -1.7487,0.7295 -2.78055,2.30432 -1.03187,1.5748 -2.3142,2.59254 -2.84963,2.26162 -0.53543,-0.33091 -1.62368,0.43944 -2.41834,1.71188 -0.79465,1.27244 -2.03331,2.31353 -2.75259,2.31353 -0.71926,0 -1.6141,0.79832 -1.98852,1.77405 -0.37443,0.97573 -1.19862,1.454 -1.83155,1.06283 -0.63293,-0.39117 -1.456,0.0842 -1.82905,1.05631 -0.37304,0.97215 -1.13899,1.48279 -1.70213,1.13475 -0.56312,-0.34803 -1.32907,0.16261 -1.70212,1.13475 -0.37304,0.97215 -1.139,1.48279 -1.70213,1.13475 -0.56312,-0.34803 -1.32908,0.16261 -1.70213,1.13475 -0.37304,0.97216 -1.1354,1.48502 -1.6941,1.13971 -0.55872,-0.3453 -1.01586,-0.087 -1.01586,0.57389 0,0.66095 -0.76595,1.20173 -1.70212,1.20173 -0.93617,0 -1.70213,0.54078 -1.70213,1.20172 0,0.66095 -0.51064,0.88613 -1.13475,0.50041 -0.62412,-0.38573 -1.13476,-0.2159 -1.13476,0.37738 0,0.59329 -1.27659,1.39912 -2.83688,1.79072 -1.56028,0.39161 -2.83687,1.24306 -2.83687,1.89212 0,0.64905 -0.51064,0.86451 -1.13476,0.47878 -0.62411,-0.38572 -1.13475,-0.1304 -1.13475,0.56738 0,0.69778 -0.51064,0.9531 -1.13475,0.56738 -0.62411,-0.38573 -1.13475,-0.0755 -1.13475,0.68953 0,0.76497 -0.31611,1.07473 -0.70247,0.68838 -0.38635,-0.38636 -1.44879,0.0439 -2.36099,0.95605 -0.91218,0.91219 -2.12799,1.36838 -2.70178,1.01375 -0.5738,-0.35463 -1.04327,-0.0739 -1.04327,0.62392 0,0.69778 -0.51064,0.9531 -1.13475,0.56737 -0.62412,-0.38572 -1.13476,-0.1304 -1.13476,0.56738 0,0.69778 -0.51063,0.9531 -1.13475,0.56737 -0.62411,-0.38572 -1.13475,-0.0755 -1.13475,0.68954 0,0.76497 -0.32246,1.06839 -0.71657,0.67427 -0.39412,-0.39413 -1.79838,-0.11542 -3.12057,0.61933 -1.3222,0.73474 -2.78697,1.22742 -3.25506,1.09482 -0.46808,-0.13259 -0.85106,0.35467 -0.85106,1.0828 0,0.72813 -0.32246,1.00142 -0.71657,0.6073 -0.39413,-0.39412 -1.79838,-0.11434 -3.12057,0.62173 -1.3222,0.73607 -2.78698,1.42023 -3.25506,1.52035 -0.46809,0.10009 -1.23404,0.30636 -1.70213,0.45828 -0.46808,0.15192 -1.23404,0.21575 -1.70213,0.14185 -0.46808,-0.0739 -0.85106,0.4064 -0.85106,1.06735 0,0.66094 -0.47536,0.90793 -1.05634,0.54886 -0.58099,-0.35908 -1.38223,-0.12556 -1.78054,0.51891 -0.39831,0.64448 -1.16427,0.89979 -1.70213,0.56738 -0.53786,-0.33241 -1.30382,-0.077 -1.70212,0.56738 -0.39831,0.64447 -1.16427,0.89979 -1.70213,0.56737 -0.53786,-0.33241 -1.28489,-0.10769 -1.66006,0.4993 -0.37516,0.60705 -1.38008,0.83589 -2.23313,0.50853 -0.85306,-0.32734 -1.89326,-0.0414 -2.31158,0.63545 -0.4183,0.67685 -1.20063,0.95864 -1.73849,0.62623 -0.53787,-0.33242 -1.2849,-0.10769 -1.66007,0.4993 -0.37516,0.60704 -1.38007,0.83588 -2.23312,0.50853 -0.85306,-0.32735 -1.89327,-0.0414 -2.31158,0.63545 -0.4183,0.67684 -1.25828,0.923 -1.86661,0.54704 -0.60833,-0.37597 -1.72199,-0.19859 -2.47478,0.39419 -0.75281,0.59277 -2.1347,1.13653 -3.07087,1.20835 -2.97301,0.22809 -7.37588,1.01306 -7.37588,1.31503 0,0.16012 -1.2766,0.458 -2.83688,0.66193 -1.56029,0.20393 -4.87943,0.67827 -7.37589,1.05407 -12.68805,1.91002 -19.49013,2.50473 -37.05552,3.23977 -7.27415,0.30438 -13.48081,0.29834 -13.79257,-0.0134 z M 513.47518,417.34317 c 1.24822,-0.3936 2.39716,-0.81853 2.55319,-0.94429 0.15603,-0.12577 0.82149,-0.2925 1.47881,-0.37051 0.65732,-0.078 2.3169,-1.19998 3.68794,-2.49326 1.37105,-1.29328 3.3941,-2.68445 4.49567,-3.09149 1.10156,-0.40704 2.49318,-2.02975 3.09248,-3.60603 0.5993,-1.57628 1.61292,-2.86596 2.25247,-2.86596 0.63956,0 1.16284,-0.76596 1.16284,-1.70213 0,-0.93617 0.54078,-1.70212 1.20173,-1.70212 0.66094,0 0.88612,-0.51064 0.5004,-1.13476 -0.38573,-0.62411 -0.13041,-1.13475 0.56738,-1.13475 0.69778,0 0.97491,-0.47536 0.61584,-1.05634 -0.35908,-0.58099 -0.2044,-1.33351 0.34374,-1.67227 1.23546,-0.76356 1.08414,-17.73651 -0.17549,-19.68274 -0.50492,-0.78014 -0.60244,-1.92907 -0.21672,-2.55319 0.38573,-0.62411 0.16055,-1.13475 -0.5004,-1.13475 -0.66095,0 -1.14126,-0.38298 -1.06735,-0.85106 0.0739,-0.46809 0.0739,-1.49229 0,-2.276 -0.16046,-1.70155 -10.01869,-11.62471 -11.54864,-11.62471 -0.5874,0 -1.06801,-0.59575 -1.06801,-1.32388 0,-0.72813 -0.3161,-1.00776 -0.70246,-0.62142 -0.38635,0.38637 -1.4488,-0.0439 -2.36099,-0.95605 -0.91218,-0.91218 -2.12799,-1.36837 -2.70179,-1.01374 -0.5738,0.35462 -1.04327,0.0739 -1.04327,-0.62392 0,-0.69778 -0.51064,-0.9531 -1.13475,-0.56737 -0.62411,0.38572 -1.13475,0.2882 -1.13475,-0.21672 0,-0.50492 -57.19149,-0.91804 -127.0922,-0.91804 -69.90071,0 -127.0922,0.41312 -127.0922,0.91804 0,0.50492 -0.51064,0.60244 -1.13475,0.21672 -0.62411,-0.38573 -1.13475,-0.13041 -1.13475,0.56737 0,0.69778 -0.51064,0.9531 -1.13475,0.56738 -0.62412,-0.38573 -1.13475,-0.13041 -1.13475,0.56737 0,0.69778 -0.51064,0.9531 -1.13476,0.56738 -0.62411,-0.38573 -1.13475,-0.13041 -1.13475,0.56737 0,0.69779 -0.47925,0.9725 -1.06501,0.61048 -0.58576,-0.36201 -1.5915,0.24615 -2.23499,1.35148 -0.6435,1.10532 -1.18552,1.53116 -1.2045,0.94631 -0.0532,-1.63807 -6.84302,5.25737 -6.84302,6.94943 0,0.8194 -0.47622,1.48982 -1.05828,1.48982 -1.0774,0 -2.9799,4.40879 -2.57079,5.95745 0.12365,0.46808 -0.34045,0.85106 -1.03134,0.85106 -0.69089,0 -0.98139,0.71604 -0.64556,1.59119 0.33583,0.87515 0.30535,1.89643 -0.0677,2.2695 -0.6091,0.6091 -0.83036,14.6113 -0.25279,15.99747 0.13003,0.31206 0.36407,1.07801 0.5201,1.70213 0.15603,0.62411 0.40799,1.51773 0.55991,1.98581 0.15192,0.46809 0.21575,1.23405 0.14184,1.70213 -0.0739,0.46809 0.4064,0.85106 1.06735,0.85106 0.66094,0 0.88613,0.51064 0.5004,1.13476 -0.38572,0.62411 -0.16054,1.13475 0.50041,1.13475 0.66095,0 1.20172,0.51064 1.20172,1.13475 0,1.47756 8.73521,10.21277 10.21277,10.21277 0.62411,0 1.13475,0.47623 1.13475,1.05828 0,0.98866 3.1359,2.42801 6.6288,3.04257 0.83733,0.14733 1.70156,0.447 1.92051,0.66595 0.72455,0.72455 252.9648,0.25691 255.28048,-0.47328 z"
     id="path981"
     transform="scale(0.03)" />
</svg>
